<?xml version="1.0" encoding="UTF-8"?>
<svg version="1.1" xmlns="http://www.w3.org/2000/svg" width="500" height="500">
<path d="M0 0 C0.93423645 3.01031744 1.04449911 3.86650268 0 7 C0.52943294 9.31413374 0.52943294 9.31413374 1.4375 11.6875 C1.72496094 12.49574219 2.01242188 13.30398437 2.30859375 14.13671875 C2.65083984 15.05904297 2.65083984 15.05904297 3 16 C3.66 16 4.32 16 5 16 C8.34926035 19.02821726 10.67503497 22.30588081 11.53125 26.76953125 C11.73411678 32.94851526 10.55195618 35.90886281 7 41 C7.61382258 43.01684563 8.28591666 45.01643517 9 47 C8.15546218 53.84453782 8.15546218 53.84453782 6 56 C5.92755947 58.01964199 5.91622812 60.04167124 5.9375 62.0625 C5.958125 64.021875 5.97875 65.98125 6 68 C11.94 67.505 11.94 67.505 18 67 C18.20625 65.4325 18.4125 63.865 18.625 62.25 C19.77461467 55.20015707 21.8385608 48.49011392 23.96728516 41.68066406 C24.22815918 40.8450293 24.4890332 40.00939453 24.7578125 39.1484375 C24.9964502 38.39739746 25.23508789 37.64635742 25.48095703 36.87255859 C26.17871402 34.35525091 26.18071635 33.36143271 25 31 C24.93934919 24.93491889 26.07762215 20.63553746 30 16 C30.66 16 31.32 16 32 16 C32 15.34 32 14.68 32 14 C35 12 35 12 38 12 C39.7900288 18.15322401 41.72735422 25.14667135 38.984375 31.265625 C38.65953125 31.83796875 38.3346875 32.4103125 38 33 C37.34 33 36.68 33 36 33 C34.58349555 40.72214168 33.21474788 48.4516965 31.875 56.1875 C31.69324219 57.23486328 31.51148438 58.28222656 31.32421875 59.36132812 C30.88241996 61.90748428 30.44101907 64.45370869 30 67 C32.64 67.33 35.28 67.66 38 68 C38.99 65.69 39.98 63.38 41 61 C41.66 61 42.32 61 43 61 C43.17015625 59.93265625 43.17015625 59.93265625 43.34375 58.84375 C44.2674189 54.84118479 46.06359127 51.40326458 47.84375 47.71875 C49.09038859 45.05573663 49.09038859 45.05573663 49.51953125 42.2578125 C50 40 50 40 52.1875 38.375 C54.05211179 37.46341201 55.9485676 36.61412012 57.87109375 35.83203125 C61.75320373 33.55898558 63.49892574 31.04229004 65.875 27.3125 C66.2771875 26.70599609 66.679375 26.09949219 67.09375 25.47460938 C68.07490167 23.99120149 69.03921952 22.49668248 70 21 C75.75 22.875 75.75 22.875 78 24 C76.6 34.2 76.6 34.2 75 39 C74.90752619 40.47686111 74.87000929 41.95775501 74.875 43.4375 C74.87242187 44.19933594 74.86984375 44.96117187 74.8671875 45.74609375 C74.92565308 48.00521132 74.92565308 48.00521132 75.56640625 50.14453125 C76.15712465 52.67238026 75.31150176 53.83987945 74 56 C73.34 56 72.68 56 72 56 C71.75507813 56.82757813 71.51015625 57.65515625 71.2578125 58.5078125 C69.80806511 62.53288756 67.9276949 66.13227714 65.875 69.875 C65.50246094 70.56335938 65.12992188 71.25171875 64.74609375 71.9609375 C63.83500474 73.64294798 62.91809685 75.32180436 62 77 C64.45157561 78.22578781 65.98382178 78.08470727 68.71875 78.02734375 C69.65074219 78.01509766 70.58273437 78.00285156 71.54296875 77.99023438 C73.51439642 77.95507681 75.48575832 77.91601385 77.45703125 77.87304688 C78.38902344 77.86208984 79.32101562 77.85113281 80.28125 77.83984375 C81.13783203 77.82300537 81.99441406 77.80616699 82.87695312 77.78881836 C85 78 85 78 87 80 C87.54872678 84.49955958 86.39869008 87.92142572 84.9519043 92.14282227 C83.82732698 95.51828479 82.79053571 98.91755109 81.765625 102.32421875 C81.56515564 102.9897023 81.36468628 103.65518585 81.15814209 104.34083557 C80.73816056 105.73640049 80.3185209 107.13206834 79.89920044 108.52783203 C75.95977893 121.63294092 71.9887403 134.72837477 67.73095703 147.734375 C67.21865289 149.3222783 66.72650257 150.91675911 66.24951172 152.515625 C66.00088379 153.32515625 65.75225586 154.1346875 65.49609375 154.96875 C65.28009521 155.69513672 65.06409668 156.42152344 64.84155273 157.16992188 C64 159 64 159 61 161 C58.76515198 161.25726891 58.76515198 161.25726891 56.10375977 161.26742554 C54.58952927 161.28022049 54.58952927 161.28022049 53.04470825 161.29327393 C51.93811859 161.29236755 50.83152893 161.29146118 49.69140625 161.29052734 C48.52535858 161.29724457 47.35931091 161.30396179 46.15792847 161.31088257 C42.29274265 161.3299243 38.42772984 161.33378966 34.5625 161.3359375 C32.56026321 161.3407378 30.55802638 161.34554128 28.5557909 161.35085833 C22.26016285 161.36714287 15.964592 161.37202711 9.66894531 161.37060547 C3.17102599 161.36940303 -3.32656172 161.39052475 -9.82439709 161.4220928 C-15.40154428 161.44822397 -20.97858293 161.45897415 -26.5557909 161.45769465 C-29.88766177 161.4571842 -33.21917062 161.46474289 -36.55099487 161.48405075 C-40.26474874 161.50355937 -43.97763967 161.497932 -47.69140625 161.48583984 C-48.79799591 161.49707886 -49.90458557 161.50831787 -51.04470825 161.51989746 C-52.05419525 161.51150848 -53.06368225 161.50311951 -54.10375977 161.49447632 C-55.42114891 161.49611062 -55.42114891 161.49611062 -56.76515198 161.49777794 C-59.73413493 160.83648276 -60.35199299 159.46028785 -62 157 C-62.66 157 -63.32 157 -64 157 C-65.53642914 151.01648757 -66.30095045 145.44073713 -66.30639648 139.27075195 C-66.31472 138.45002197 -66.32304352 137.62929199 -66.33161926 136.78369141 C-66.35549114 134.1018383 -66.36445943 131.42022891 -66.37109375 128.73828125 C-66.38007153 126.85979648 -66.38919357 124.98131239 -66.39845276 123.10282898 C-66.41487893 119.1801073 -66.42263225 115.25747038 -66.42553711 111.3347168 C-66.43094028 106.31425359 -66.46872703 101.29458753 -66.51428127 96.27435017 C-66.5440368 92.40096623 -66.5512602 88.52777563 -66.55226326 84.65428734 C-66.55646199 82.80313622 -66.56888239 80.95198434 -66.58978081 79.10094643 C-66.61668853 76.51371947 -66.61187451 73.92836065 -66.59936523 71.34106445 C-66.61419952 70.58196274 -66.62903381 69.82286102 -66.64431763 69.04075623 C-66.56484038 63.2576492 -64.99173732 60.88606773 -61 57 C-58.96362305 56.31884766 -58.96362305 56.31884766 -57.01171875 56.4140625 C-56.30595703 56.43339844 -55.60019531 56.45273438 -54.87304688 56.47265625 C-54.15181641 56.52292969 -53.43058594 56.57320312 -52.6875 56.625 C-51.94693359 56.65207031 -51.20636719 56.67914063 -50.44335938 56.70703125 C-48.62764002 56.77731716 -46.81343199 56.88492911 -45 57 C-45.27714844 56.40316406 -45.55429688 55.80632812 -45.83984375 55.19140625 C-48.35361473 49.17088002 -49.45452093 43.64863696 -49.8125 37.1875 C-49.8530249 36.47086182 -49.8935498 35.75422363 -49.93530273 35.01586914 C-50.10161644 30.87345278 -49.83467479 27.0586858 -49 23 C-45.75728494 23.5590888 -44.06942576 24.4132178 -42 27 C-42 27.66 -42 28.32 -42 29 C-41.443125 29.2475 -40.88625 29.495 -40.3125 29.75 C-37.55839521 31.23870529 -35.30825486 32.88409972 -33 35 C-33 35.99 -33 36.98 -33 38 C-32.34 38 -31.68 38 -31 38 C-29.3249356 42.10078931 -27.66139655 46.20615636 -26 50.3125 C-25.28457031 52.06336914 -25.28457031 52.06336914 -24.5546875 53.84960938 C-24.10351562 54.96787109 -23.65234375 56.08613281 -23.1875 57.23828125 C-22.76855469 58.26993408 -22.34960938 59.30158691 -21.91796875 60.36450195 C-21 63 -21 63 -21 66 C-20.195625 65.979375 -19.39125 65.95875 -18.5625 65.9375 C-16 66 -16 66 -15 67 C-13.65252916 67.23075082 -12.29622435 67.41153063 -10.9375 67.5625 C-9.638125 67.706875 -8.33875 67.85125 -7 68 C-7.255602 66.06043186 -7.53004646 64.12334011 -7.8125 62.1875 C-7.96332031 61.10855469 -8.11414063 60.02960938 -8.26953125 58.91796875 C-9.03902718 55.8441 -9.69463899 55.01947191 -12 53 C-12.875 50.0625 -12.875 50.0625 -13 47 C-11.5625 44.625 -11.5625 44.625 -10 43 C-10.60457031 42.75121094 -11.20914063 42.50242188 -11.83203125 42.24609375 C-14.34443848 40.80202545 -15.22579242 39.53864187 -16.6875 37.0625 C-17.10386719 36.37285156 -17.52023438 35.68320313 -17.94921875 34.97265625 C-20.63021622 29.9395569 -20.77703972 24.95368714 -19.3515625 19.53515625 C-16.49037942 11.59965275 -9.55251338 0 0 0 Z M51 77 C48.32186601 76.97792512 48.32186601 76.97792512 45.375 77.375 C44.37210937 77.48585938 43.36921875 77.59671875 42.3359375 77.7109375 C41.56507813 77.80632812 40.79421875 77.90171875 40 78 C40 78.33 40 78.66 40 79 C44.29 79 48.58 79 53 79 C52.34 78.34 51.68 77.68 51 77 Z M31.7578125 77.47265625 C28.6142565 78.07376115 25.76314545 78.0581275 22.5625 78 C15.38090943 77.92919685 8.24031873 78.21331163 1.06884766 78.57641602 C-4.44051661 78.85080175 -9.94671503 79.06640003 -15.4609375 79.21875 C-16.72268799 79.25556885 -17.98443848 79.2923877 -19.28442383 79.33032227 C-21.76323061 79.40064189 -24.24225082 79.46387062 -26.72143555 79.51928711 C-27.85621338 79.5528833 -28.99099121 79.58647949 -30.16015625 79.62109375 C-31.16699463 79.6461499 -32.17383301 79.67120605 -33.21118164 79.69702148 C-37.28866146 80.14000078 -40.08695286 81.08695286 -43 84 C-42.6814823 86.10820797 -42.6814823 86.10820797 -42 88 C-41.319375 87.195625 -40.63875 86.39125 -39.9375 85.5625 C-34.79836861 81.07942793 -28.41197752 81.88852007 -21.875 82 C-14.00823105 82.07264935 -6.19537183 81.77257446 1.65917969 81.35546875 C6.07167977 81.1257365 10.45472575 80.94745588 14.875 81 C19.25979192 81.04229703 23.62316821 80.87468853 28 80.625 C29.258125 80.55539063 30.51625 80.48578125 31.8125 80.4140625 C35.15017772 80.21974945 35.15017772 80.21974945 38 78 C35.64642696 77.21547565 34.21139532 76.95543757 31.7578125 77.47265625 Z M-44 89 C-46.34804289 94.90423575 -48.04117025 100.75865012 -49.5 106.9375 C-50.86586392 112.69615852 -52.39303589 118.2928967 -54.31738281 123.89038086 C-55.31929774 126.98678531 -55.97971703 130.12508578 -56.625 133.3125 C-57.96862167 139.87890913 -57.96862167 139.87890913 -58.58203125 142.24609375 C-59.12425474 144.52140539 -59.06469824 146.67086323 -59 149 C-59.66 149 -60.32 149 -61 149 C-60.67 150.65 -60.34 152.3 -60 154 C-58.05835137 151.08752706 -57.39776145 149.22894004 -56.5546875 145.890625 C-56.28591797 144.84011963 -56.01714844 143.78961426 -55.74023438 142.70727539 C-55.45470703 141.56637451 -55.16917969 140.42547363 -54.875 139.25 C-54.2582881 136.81628568 -53.64107969 134.38269714 -53.0234375 131.94921875 C-52.86272766 131.31281967 -52.70201782 130.67642059 -52.53643799 130.02073669 C-51.30477777 125.15567882 -50.02287515 120.30521167 -48.7265625 115.45703125 C-48.16668677 113.34742335 -47.6078032 111.23755562 -47.04937744 109.12756348 C-46.6841577 107.75473326 -46.31580605 106.38273229 -45.9442749 105.01159668 C-45.42281595 103.08430506 -44.91425845 101.15353684 -44.40625 99.22265625 C-44.11041016 98.11672119 -43.81457031 97.01078613 -43.50976562 95.87133789 C-43.01865178 93.10505919 -43.04970461 91.60423558 -44 89 Z " fill="#045387" transform="translate(242,120)"/>
<path d="M0 0 C0.93423645 3.01031744 1.04449911 3.86650268 0 7 C0.52943294 9.31413374 0.52943294 9.31413374 1.4375 11.6875 C1.72496094 12.49574219 2.01242188 13.30398437 2.30859375 14.13671875 C2.65083984 15.05904297 2.65083984 15.05904297 3 16 C3.66 16 4.32 16 5 16 C8.34926035 19.02821726 10.67503497 22.30588081 11.53125 26.76953125 C11.73411678 32.94851526 10.55195618 35.90886281 7 41 C7.61382258 43.01684563 8.28591666 45.01643517 9 47 C8.15546218 53.84453782 8.15546218 53.84453782 6 56 C5.92755947 58.01964199 5.91622812 60.04167124 5.9375 62.0625 C5.958125 64.021875 5.97875 65.98125 6 68 C11.94 67.505 11.94 67.505 18 67 C18.20625 65.4325 18.4125 63.865 18.625 62.25 C19.77461467 55.20015707 21.8385608 48.49011392 23.96728516 41.68066406 C24.22815918 40.8450293 24.4890332 40.00939453 24.7578125 39.1484375 C24.9964502 38.39739746 25.23508789 37.64635742 25.48095703 36.87255859 C26.17871402 34.35525091 26.18071635 33.36143271 25 31 C24.93934919 24.93491889 26.07762215 20.63553746 30 16 C30.66 16 31.32 16 32 16 C32 15.34 32 14.68 32 14 C35 12 35 12 38 12 C39.7900288 18.15322401 41.72735422 25.14667135 38.984375 31.265625 C38.65953125 31.83796875 38.3346875 32.4103125 38 33 C37.34 33 36.68 33 36 33 C34.58349555 40.72214168 33.21474788 48.4516965 31.875 56.1875 C31.69324219 57.23486328 31.51148438 58.28222656 31.32421875 59.36132812 C30.88241996 61.90748428 30.44101907 64.45370869 30 67 C32.64 67.33 35.28 67.66 38 68 C38.99 65.69 39.98 63.38 41 61 C41.66 61 42.32 61 43 61 C43.17015625 59.93265625 43.17015625 59.93265625 43.34375 58.84375 C44.2674189 54.84118479 46.06359127 51.40326458 47.84375 47.71875 C49.09038859 45.05573663 49.09038859 45.05573663 49.51953125 42.2578125 C50 40 50 40 52.1875 38.375 C54.05211179 37.46341201 55.9485676 36.61412012 57.87109375 35.83203125 C61.75320373 33.55898558 63.49892574 31.04229004 65.875 27.3125 C66.2771875 26.70599609 66.679375 26.09949219 67.09375 25.47460938 C68.07490167 23.99120149 69.03921952 22.49668248 70 21 C75.75 22.875 75.75 22.875 78 24 C76.6 34.2 76.6 34.2 75 39 C74.90752619 40.47686111 74.87000929 41.95775501 74.875 43.4375 C74.87242187 44.19933594 74.86984375 44.96117187 74.8671875 45.74609375 C74.92565308 48.00521132 74.92565308 48.00521132 75.56640625 50.14453125 C76.15712465 52.67238026 75.31150176 53.83987945 74 56 C73.34 56 72.68 56 72 56 C71.63261719 57.24136719 71.63261719 57.24136719 71.2578125 58.5078125 C69.80806511 62.53288756 67.9276949 66.13227714 65.875 69.875 C65.50246094 70.56335938 65.12992187 71.25171875 64.74609375 71.9609375 C63.83500474 73.64294798 62.91809685 75.32180436 62 77 C62.66 77.66 63.32 78.32 64 79 C59.9472484 79.98248524 56.16138263 80.08159574 52 80 C51.67 79.34 51.34 78.68 51 78 C50.10796875 78.08378906 49.2159375 78.16757813 48.296875 78.25390625 C47.12640625 78.35574219 45.9559375 78.45757812 44.75 78.5625 C43.00976562 78.71912109 43.00976562 78.71912109 41.234375 78.87890625 C38 79 38 79 35.890625 78.46484375 C33.3650113 77.84387674 31.53447846 78.46249647 29 79 C26.85463341 79.04475341 24.70797954 79.03896444 22.5625 79 C16.29304603 78.93114789 10.07235058 79.16443794 3.8125 79.5 C-9.45413492 80.19100761 -22.71946742 80.0948818 -36 80 C-36 78.68 -36 77.36 -36 76 C-36.66 76 -37.32 76 -38 76 C-38.31453125 75.02160156 -38.6290625 74.04320312 -38.953125 73.03515625 C-41.0590534 66.55862026 -43.14966711 60.17792674 -46.10546875 54.02734375 C-48.55631546 48.4728047 -49.39780539 43.49404475 -49.6875 37.5 C-49.73455078 36.76652344 -49.78160156 36.03304687 -49.83007812 35.27734375 C-50.06218036 31.02340449 -49.88384475 27.19992391 -49 23 C-45.75728494 23.5590888 -44.06942576 24.4132178 -42 27 C-42 27.66 -42 28.32 -42 29 C-41.443125 29.2475 -40.88625 29.495 -40.3125 29.75 C-37.55839521 31.23870529 -35.30825486 32.88409972 -33 35 C-33 35.99 -33 36.98 -33 38 C-32.34 38 -31.68 38 -31 38 C-29.3249356 42.10078931 -27.66139655 46.20615636 -26 50.3125 C-25.52304688 51.47974609 -25.04609375 52.64699219 -24.5546875 53.84960938 C-24.10351562 54.96787109 -23.65234375 56.08613281 -23.1875 57.23828125 C-22.76855469 58.26993408 -22.34960938 59.30158691 -21.91796875 60.36450195 C-21 63 -21 63 -21 66 C-20.195625 65.979375 -19.39125 65.95875 -18.5625 65.9375 C-16 66 -16 66 -15 67 C-13.65252916 67.23075082 -12.29622435 67.41153063 -10.9375 67.5625 C-9.638125 67.706875 -8.33875 67.85125 -7 68 C-7.255602 66.06043186 -7.53004646 64.12334011 -7.8125 62.1875 C-7.96332031 61.10855469 -8.11414063 60.02960938 -8.26953125 58.91796875 C-9.03902718 55.8441 -9.69463899 55.01947191 -12 53 C-12.875 50.0625 -12.875 50.0625 -13 47 C-11.5625 44.625 -11.5625 44.625 -10 43 C-10.60457031 42.75121094 -11.20914063 42.50242188 -11.83203125 42.24609375 C-14.34443848 40.80202545 -15.22579242 39.53864187 -16.6875 37.0625 C-17.10386719 36.37285156 -17.52023438 35.68320313 -17.94921875 34.97265625 C-20.63021622 29.9395569 -20.77703972 24.95368714 -19.3515625 19.53515625 C-16.49037942 11.59965275 -9.55251338 0 0 0 Z " fill="#F69D17" transform="translate(242,120)"/>
<path d="M0 0 C1.06057617 -0.03480469 1.06057617 -0.03480469 2.14257812 -0.0703125 C4.22265625 -0.046875 4.22265625 -0.046875 7.9375 0.75 C11.11830573 4.33166013 12.54218981 7.89330792 13.6875 12.5 C13.92984375 13.44359375 14.1721875 14.3871875 14.421875 15.359375 C14.9375 17.75 14.9375 17.75 14.9375 19.75 C15.5975 19.75 16.2575 19.75 16.9375 19.75 C16.9375 21.4 16.9375 23.05 16.9375 24.75 C15.2875 25.41 13.6375 26.07 11.9375 26.75 C11.9375 27.41 11.9375 28.07 11.9375 28.75 C12.453125 28.275625 12.96875 27.80125 13.5 27.3125 C16.60532675 25.32190593 19.30382504 25.09939182 22.9375 24.75 C22.71484375 26.609375 22.71484375 26.609375 21.9375 28.75 C19.94140625 30.015625 19.94140625 30.015625 17.5 31 C16.69691406 31.33515625 15.89382812 31.6703125 15.06640625 32.015625 C12.9375 32.75 12.9375 32.75 10.9375 32.75 C11.164375 33.41 11.39125 34.07 11.625 34.75 C12.06080056 38.93368542 10.60119658 41.96203546 8.9375 45.75 C8.2775 45.42 7.6175 45.09 6.9375 44.75 C7.5975 41.12 8.2575 37.49 8.9375 33.75 C8.55078125 35.25949219 8.1640625 36.76898438 7.765625 38.32421875 C3.03495769 56.68200946 3.03495769 56.68200946 0.75 63.8125 C-1.33550512 70.36323601 -2.6984334 77.0184524 -4.0625 83.75 C-4.71756412 86.75271629 -5.3903232 89.75105734 -6.0625 92.75 C-6.7225 92.75 -7.3825 92.75 -8.0625 92.75 C-7.4025 93.41 -6.7425 94.07 -6.0625 94.75 C-4.7425 89.8 -3.4225 84.85 -2.0625 79.75 C-1.7325 79.75 -1.4025 79.75 -1.0625 79.75 C-1.15000555 81.97988284 -1.25819061 84.20896005 -1.375 86.4375 C-1.43300781 87.67886719 -1.49101562 88.92023438 -1.55078125 90.19921875 C-2.07912992 93.8653939 -2.79998566 95.84715141 -5.0625 98.75 C-8.25 100.0625 -8.25 100.0625 -11.0625 100.75 C-12.59892914 94.76648757 -13.36345045 89.19073713 -13.36889648 83.02075195 C-13.38138176 81.78965698 -13.38138176 81.78965698 -13.39411926 80.53369141 C-13.41799114 77.8518383 -13.42695943 75.17022891 -13.43359375 72.48828125 C-13.44257153 70.60979648 -13.45169357 68.73131239 -13.46095276 66.85282898 C-13.47737893 62.9301073 -13.48513225 59.00747038 -13.48803711 55.0847168 C-13.49344028 50.06425359 -13.53122703 45.04458753 -13.57678127 40.02435017 C-13.6065368 36.15096623 -13.6137602 32.27777563 -13.61476326 28.40428734 C-13.61896199 26.55313622 -13.63138239 24.70198434 -13.65228081 22.85094643 C-13.67918853 20.26371947 -13.67437451 17.67836065 -13.66186523 15.09106445 C-13.67669952 14.33196274 -13.69153381 13.57286102 -13.70681763 12.79075623 C-13.65355997 8.91549966 -13.11406308 6.30971159 -10.76551819 3.27848816 C-7.28704136 0.02461162 -4.54500684 -0.14997273 0 0 Z " fill="#045689" transform="translate(189.0625,176.25)"/>
<path d="M0 0 C5.75 1.875 5.75 1.875 8 3 C6.6 13.2 6.6 13.2 5 18 C4.90752619 19.47686111 4.87000929 20.95775501 4.875 22.4375 C4.87242187 23.19933594 4.86984375 23.96117187 4.8671875 24.74609375 C4.92565308 27.00521132 4.92565308 27.00521132 5.56640625 29.14453125 C6.15712465 31.67238026 5.31150176 32.83987945 4 35 C3.34 35 2.68 35 2 35 C1.75507813 35.82757813 1.51015625 36.65515625 1.2578125 37.5078125 C-0.19193489 41.53288756 -2.0723051 45.13227714 -4.125 48.875 C-4.49753906 49.56335938 -4.87007813 50.25171875 -5.25390625 50.9609375 C-6.16499526 52.64294798 -7.08190315 54.32180436 -8 56 C-7.34 56.66 -6.68 57.32 -6 58 C-10.0527516 58.98248524 -13.83861737 59.08159574 -18 59 C-18.33 58.34 -18.66 57.68 -19 57 C-19.90363281 57.09539062 -20.80726563 57.19078125 -21.73828125 57.2890625 C-22.91777344 57.39992187 -24.09726562 57.51078125 -25.3125 57.625 C-26.48425781 57.74101562 -27.65601563 57.85703125 -28.86328125 57.9765625 C-32 58 -32 58 -35 56 C-33.02 50.72 -31.04 45.44 -29 40 C-28.34 40 -27.68 40 -27 40 C-26.8865625 39.2884375 -26.773125 38.576875 -26.65625 37.84375 C-25.7325811 33.84118479 -23.93640873 30.40326458 -22.15625 26.71875 C-20.90961141 24.05573663 -20.90961141 24.05573663 -20.48046875 21.2578125 C-20 19 -20 19 -17.8125 17.375 C-15.94788821 16.46341201 -14.0514324 15.61412012 -12.12890625 14.83203125 C-8.24679627 12.55898558 -6.50107426 10.04229004 -4.125 6.3125 C-3.7228125 5.70599609 -3.320625 5.09949219 -2.90625 4.47460938 C-1.92509833 2.99120149 -0.96078048 1.49668248 0 0 Z " fill="#F79E17" transform="translate(312,141)"/>
<path d="M0 0 C1.00095703 0.00322266 2.00191406 0.00644531 3.03320312 0.00976562 C4.01482422 -0.00634766 4.99644531 -0.02246094 6.0078125 -0.0390625 C11.86082525 -0.04298806 16.24393521 0.34216316 21.34570312 3.32226562 C21.67570312 4.31226563 22.00570312 5.30226563 22.34570312 6.32226562 C23.00570312 6.32226562 23.66570312 6.32226562 24.34570312 6.32226562 C25.6059711 8.84280158 25.26444758 10.17647542 24.90820312 12.94726562 C24.75544922 14.17316406 24.75544922 14.17316406 24.59960938 15.42382812 C24.51582031 16.0503125 24.43203125 16.67679687 24.34570312 17.32226562 C23.68570313 17.32226562 23.02570313 17.32226562 22.34570312 17.32226562 C22.63445312 17.89074219 22.92320312 18.45921875 23.22070312 19.04492188 C25.59220379 23.97731387 27.01689914 27.72896551 26.34570312 33.32226562 C25.68570313 34.31226563 25.02570313 35.30226563 24.34570312 36.32226562 C23.68570313 36.32226562 23.02570313 36.32226562 22.34570312 36.32226562 C22.34570312 36.98226562 22.34570312 37.64226562 22.34570312 38.32226562 C13.72929898 42.45813962 4.94697812 41.87403155 -4.38305664 40.80957031 C-5.18534195 40.7185907 -5.98762726 40.62761108 -6.81422424 40.53387451 C-7.42144821 40.46404358 -8.02867218 40.39421265 -8.65429688 40.32226562 C-8.84638977 34.94746089 -9.02513858 29.57244307 -9.19140625 24.19677734 C-9.24988943 22.36722854 -9.31205019 20.5377935 -9.37792969 18.70849609 C-9.47186535 16.08256747 -9.55266815 13.45651676 -9.63085938 10.83007812 C-9.66305573 10.00919708 -9.69525208 9.18831604 -9.72842407 8.34255981 C-9.78162803 6.33634832 -9.72730883 4.32785394 -9.65429688 2.32226562 C-6.69671774 -0.63531351 -4.04654715 0.03005538 0 0 Z M2.34570312 11.32226562 C2.34570312 12.64226562 2.34570312 13.96226562 2.34570312 15.32226562 C5.11670706 16.70776759 7.27917372 16.51001232 10.34570312 16.32226562 C11.33570313 15.66226562 12.32570312 15.00226563 13.34570312 14.32226562 C13.34570312 13.33226562 13.34570312 12.34226562 13.34570312 11.32226562 C7.79076389 10.29522815 7.79076389 10.29522815 2.34570312 11.32226562 Z M2.34570312 26.32226562 C2.34570312 27.64226562 2.34570312 28.96226562 2.34570312 30.32226562 C6.66219532 31.08399954 10.09003765 31.48290166 14.34570312 30.32226562 C14.01570313 28.67226563 13.68570313 27.02226562 13.34570312 25.32226562 C9.51344885 25.23314343 6.08008161 25.44358834 2.34570312 26.32226562 Z " fill="#075285" transform="translate(171.654296875,290.677734375)"/>
<path d="M0 0 C0.93423645 3.01031744 1.04449911 3.86650268 0 7 C0.52943294 9.31413374 0.52943294 9.31413374 1.4375 11.6875 C1.72496094 12.49574219 2.01242188 13.30398437 2.30859375 14.13671875 C2.65083984 15.05904297 2.65083984 15.05904297 3 16 C3.66 16 4.32 16 5 16 C8.34926035 19.02821726 10.67503497 22.30588081 11.53125 26.76953125 C11.73411678 32.94851526 10.55195618 35.90886281 7 41 C7.61382258 43.01684563 8.28591666 45.01643517 9 47 C8.15546218 53.84453782 8.15546218 53.84453782 6 56 C3.73882741 56.34224734 1.46444952 56.59910926 -0.8125 56.8125 C-2.67841797 57.00779297 -2.67841797 57.00779297 -4.58203125 57.20703125 C-8 57 -8 57 -10.390625 55.19921875 C-12.45036013 52.38458069 -12.92750288 50.47986177 -13 47 C-11.5625 44.625 -11.5625 44.625 -10 43 C-10.60457031 42.75121094 -11.20914063 42.50242188 -11.83203125 42.24609375 C-14.34443848 40.80202545 -15.22579242 39.53864187 -16.6875 37.0625 C-17.10386719 36.37285156 -17.52023438 35.68320313 -17.94921875 34.97265625 C-20.63021622 29.9395569 -20.77703972 24.95368714 -19.3515625 19.53515625 C-16.49037942 11.59965275 -9.55251338 0 0 0 Z " fill="#0F598B" transform="translate(242,120)"/>
<path d="M0 0 C22.32969432 -0.82532751 22.32969432 -0.82532751 31.9375 6.125 C35.62603745 11.26659766 37.25369777 15.95562671 36.72265625 22.328125 C35.63193748 27.9817915 34.46927063 33.20104812 29.8203125 36.91796875 C20.17556697 42.65100418 9.71233689 40.8601357 -1 40 C-1.02467759 34.62484067 -1.04284928 29.24971415 -1.05493164 23.87451172 C-1.05996737 22.04507879 -1.06679627 20.21564991 -1.07543945 18.38623047 C-1.08753824 15.76008102 -1.09323583 13.13398468 -1.09765625 10.5078125 C-1.10281754 9.68693146 -1.10797882 8.86605042 -1.11329651 8.02029419 C-1.11387171 2.22774341 -1.11387171 2.22774341 0 0 Z M11 11 C11 17.6 11 24.2 11 31 C17.88295246 31.23409893 17.88295246 31.23409893 23 28 C24.73202764 22.80391708 24.90862644 17.93576938 22.5625 12.9375 C19.33893172 10.09533759 19.33893172 10.09533759 11 11 Z " fill="#0A5486" transform="translate(303,291)"/>
<path d="M0 0 C1.37478516 0.01740234 1.37478516 0.01740234 2.77734375 0.03515625 C3.69644531 0.04417969 4.61554688 0.05320312 5.5625 0.0625 C6.27277344 0.07410156 6.98304688 0.08570313 7.71484375 0.09765625 C9.35410997 3.68367687 9.93733602 6.36122323 9.8046875 10.29296875 C9.78470703 11.25589844 9.76472656 12.21882813 9.74414062 13.2109375 C9.68270108 15.22667753 9.61756798 17.24230821 9.54882812 19.2578125 C9.53013672 20.21816406 9.51144531 21.17851562 9.4921875 22.16796875 C9.46374756 23.04211426 9.43530762 23.91625977 9.40600586 24.81689453 C9.54122197 27.15017074 9.54122197 27.15017074 10.99829102 28.89404297 C13.75120173 30.82433024 16.46500843 30.28160919 19.71484375 30.09765625 C20.7487156 26.99604071 20.89930343 24.66185403 20.99609375 21.40625 C21.03347656 20.29701172 21.07085937 19.18777344 21.109375 18.04492188 C21.17980478 15.7011754 21.25011689 13.35742538 21.3203125 11.01367188 C21.35769531 9.90572266 21.39507812 8.79777344 21.43359375 7.65625 C21.4790332 6.12955688 21.4790332 6.12955688 21.52539062 4.57202148 C21.71484375 2.09765625 21.71484375 2.09765625 22.71484375 0.09765625 C24.33948217 0.04370147 25.96462916 0.0048843 27.58984375 -0.02734375 C28.94722656 -0.06214844 28.94722656 -0.06214844 30.33203125 -0.09765625 C32.71484375 0.09765625 32.71484375 0.09765625 34.71484375 2.09765625 C34.97363281 4.32495117 34.97363281 4.32495117 34.98046875 7.078125 C34.98433594 8.57762695 34.98433594 8.57762695 34.98828125 10.10742188 C34.98054688 11.15607422 34.9728125 12.20472656 34.96484375 13.28515625 C34.97644531 14.82913086 34.97644531 14.82913086 34.98828125 16.40429688 C34.96978745 23.62150267 34.6499635 29.22262119 30.52734375 35.34765625 C25.75207218 40.01681067 21.78622415 41.25607562 15.27734375 41.53515625 C10.01825146 41.36900361 5.91680119 40.33831682 1.71484375 37.09765625 C-2.31656359 32.03255472 -3.4114875 28.30651379 -3.41796875 21.93359375 C-3.41925781 20.72960937 -3.42054688 19.525625 -3.421875 18.28515625 C-3.41800781 17.02703125 -3.41414062 15.76890625 -3.41015625 14.47265625 C-3.41402344 13.20679688 -3.41789063 11.9409375 -3.421875 10.63671875 C-3.42058594 9.4353125 -3.41929687 8.23390625 -3.41796875 6.99609375 C-3.41684082 5.88927246 -3.41571289 4.78245117 -3.41455078 3.64208984 C-3.23636951 0.13830639 -3.23636951 0.13830639 0 0 Z " fill="#085285" transform="translate(206.28515625,290.90234375)"/>
<path d="M0 0 C1.22589844 0.01353516 1.22589844 0.01353516 2.4765625 0.02734375 C3.41628906 0.04474609 3.41628906 0.04474609 4.375 0.0625 C6.57128061 3.58554398 6.54477818 6.26320257 6.3515625 10.359375 C6.3 11.56464844 6.2484375 12.76992188 6.1953125 14.01171875 C6.13085938 15.26597656 6.06640625 16.52023437 6 17.8125 C5.94328125 19.08222656 5.8865625 20.35195313 5.828125 21.66015625 C5.68671042 24.79484615 5.53530009 27.92872836 5.375 31.0625 C6.18324219 30.97871094 6.99148438 30.89492188 7.82421875 30.80859375 C9.42716797 30.65583984 9.42716797 30.65583984 11.0625 30.5 C12.11824219 30.39558594 13.17398437 30.29117187 14.26171875 30.18359375 C17.18926086 30.06972448 19.54631144 30.35401585 22.375 31.0625 C23.5 36.6875 23.5 36.6875 22.375 40.0625 C18.85470194 40.26109939 15.33376195 40.44436528 11.8125 40.625 C10.3265332 40.70911133 10.3265332 40.70911133 8.81054688 40.79492188 C7.35551758 40.86743164 7.35551758 40.86743164 5.87109375 40.94140625 C4.54356079 41.01210327 4.54356079 41.01210327 3.18920898 41.08422852 C0.375 41.0625 0.375 41.0625 -6.625 40.0625 C-6.625 27.1925 -6.625 14.3225 -6.625 1.0625 C-4.21954362 -0.14022819 -2.67503047 -0.03821472 0 0 Z " fill="#045083" transform="translate(274.625,290.9375)"/>
<path d="M0 0 C5.75 1.875 5.75 1.875 8 3 C6.6 13.2 6.6 13.2 5 18 C4.90752619 19.47686111 4.87000929 20.95775501 4.875 22.4375 C4.87242187 23.19933594 4.86984375 23.96117187 4.8671875 24.74609375 C4.92565308 27.00521132 4.92565308 27.00521132 5.56640625 29.14453125 C6.15712465 31.67238026 5.31150176 32.83987945 4 35 C3.34 35 2.68 35 2 35 C2 34.34 2 33.68 2 33 C0.68 33 -0.64 33 -2 33 C-2 32.34 -2 31.68 -2 31 C-3.98 30.67 -5.96 30.34 -8 30 C-8 29.34 -8 28.68 -8 28 C-10.31 27.67 -12.62 27.34 -15 27 C-15 26.34 -15 25.68 -15 25 C-16.98 24.34 -18.96 23.68 -21 23 C-20.8125 21.1875 -20.8125 21.1875 -20 19 C-17.47765498 17.19832499 -14.99731072 15.99890233 -12.12890625 14.828125 C-8.24442639 12.55854126 -6.5011096 10.04234551 -4.125 6.3125 C-3.7228125 5.70599609 -3.320625 5.09949219 -2.90625 4.47460938 C-1.92509833 2.99120149 -0.96078048 1.49668248 0 0 Z " fill="#075384" transform="translate(312,141)"/>
<path d="M0 0 C1.7900288 6.15322401 3.72735422 13.14667135 0.984375 19.265625 C0.65953125 19.83796875 0.3346875 20.4103125 0 21 C-0.66 21 -1.32 21 -2 21 C-3.71200057 30.32536783 -5.35793557 39.66212692 -7 49 C-11.55737263 48.56179109 -14.57653445 48.14958831 -18 45 C-17.34375 42.59375 -17.34375 42.59375 -16.6875 40.1875 C-16.41679687 39.19234375 -16.14609375 38.1971875 -15.8671875 37.171875 C-15.29436035 35.07666937 -14.71633042 32.98287843 -14.1328125 30.890625 C-13.72675781 29.42882812 -13.72675781 29.42882812 -13.3125 27.9375 C-13.06113281 27.03902344 -12.80976563 26.14054687 -12.55078125 25.21484375 C-11.88071047 22.52030379 -11.74971526 21.50056947 -13 19 C-13.06065081 12.93491889 -11.92237785 8.63553746 -8 4 C-7.34 4 -6.68 4 -6 4 C-6 3.34 -6 2.68 -6 2 C-3 0 -3 0 0 0 Z " fill="#055286" transform="translate(280,132)"/>
<path d="M0 0 C0.80308594 0.01417969 1.60617188 0.02835937 2.43359375 0.04296875 C3.64208984 0.05263672 3.64208984 0.05263672 4.875 0.0625 C6.87109375 0.23046875 6.87109375 0.23046875 7.87109375 1.23046875 C7.95974583 4.11480695 7.98630671 6.97509033 7.96875 9.859375 C7.96733505 10.7236058 7.9659201 11.58783661 7.96446228 12.47825623 C7.95884614 15.24986167 7.94629094 18.02138755 7.93359375 20.79296875 C7.92858083 22.66731655 7.92401756 24.5416656 7.91992188 26.41601562 C7.90887147 31.02086419 7.89159605 35.62565296 7.87109375 40.23046875 C6.22602157 40.42453353 4.57999781 40.6105481 2.93359375 40.79296875 C1.55880859 40.94958984 1.55880859 40.94958984 0.15625 41.109375 C-0.59785156 41.14933594 -1.35195312 41.18929687 -2.12890625 41.23046875 C-4.20679335 39.15258165 -3.43517371 34.75974903 -3.515625 31.890625 C-3.54114944 31.05333359 -3.56667389 30.21604218 -3.5929718 29.3533783 C-3.64507142 27.57884044 -3.69448718 25.80422211 -3.74145508 24.02954102 C-3.81600408 21.30765243 -3.90663651 18.58660215 -3.99804688 15.86523438 C-4.04656301 14.14455888 -4.09412099 12.42385605 -4.140625 10.703125 C-4.1696843 9.88538101 -4.19874359 9.06763702 -4.22868347 8.22511292 C-4.27338082 6.22712133 -4.21047659 4.22729486 -4.12890625 2.23046875 C-2.12890625 0.23046875 -2.12890625 0.23046875 0 0 Z " fill="#045185" transform="translate(252.12890625,290.76953125)"/>
<path d="M0 0 C5.445 1.98 5.445 1.98 11 4 C10.67 5.98 10.34 7.96 10 10 C12.64 10.33 15.28 10.66 18 11 C18.20016822 14.60302803 17.99767079 16.95092353 16 20 C12.45986775 22.36008817 10.98878045 22.23463644 6.80078125 22.1953125 C5.59228516 22.18886719 4.38378906 22.18242187 3.13867188 22.17578125 C1.2447168 22.15064453 1.2447168 22.15064453 -0.6875 22.125 C-1.96173828 22.11597656 -3.23597656 22.10695312 -4.54882812 22.09765625 C-7.69940627 22.07405641 -10.84960983 22.04113194 -14 22 C-14 18.37 -14 14.74 -14 11 C-8.06 10.505 -8.06 10.505 -2 10 C-1.34 6.7 -0.68 3.4 0 0 Z " fill="#E39E32" transform="translate(262,177)"/>
<path d="M0 0 C5.55891171 2.46770015 8.36062344 6.03195368 10.53515625 11.66015625 C12.16667373 18.06968922 10.93948412 24.0457052 8.47265625 30.09765625 C6.58855172 32.45754475 5.09672398 33.52321561 2.47265625 35.09765625 C2.14265625 34.43765625 1.81265625 33.77765625 1.47265625 33.09765625 C2.13265625 33.09765625 2.79265625 33.09765625 3.47265625 33.09765625 C3.12478917 31.1222888 3.12478917 31.1222888 2.47265625 29.09765625 C1.81265625 28.76765625 1.15265625 28.43765625 0.47265625 28.09765625 C0.14265625 29.08765625 -0.18734375 30.07765625 -0.52734375 31.09765625 C-2.17734375 29.77765625 -3.82734375 28.45765625 -5.52734375 27.09765625 C-4.86734375 26.76765625 -4.20734375 26.43765625 -3.52734375 26.09765625 C-2.17297116 22.03453849 -1.84895756 18.34117837 -2.52734375 14.09765625 C-3.95386129 11.64364705 -5.46879762 10.10473873 -7.52734375 8.09765625 C-6.86734375 7.76765625 -6.20734375 7.43765625 -5.52734375 7.09765625 C-5.52734375 5.11765625 -5.52734375 3.13765625 -5.52734375 1.09765625 C-8.49734375 0.60265625 -8.49734375 0.60265625 -11.52734375 0.09765625 C-7.22545333 -2.5984594 -4.59249653 -1.56239573 0 0 Z " fill="#105986" transform="translate(328.52734375,292.90234375)"/>
<path d="M0 0 C1.32 0 2.64 0 4 0 C4.12375 0.639375 4.2475 1.27875 4.375 1.9375 C4.58125 2.618125 4.7875 3.29875 5 4 C5.66 4.33 6.32 4.66 7 5 C6.67 5.66 6.34 6.32 6 7 C7.98 7.66 9.96 8.32 12 9 C11.67 7.35 11.34 5.7 11 4 C12.32 3.67 13.64 3.34 15 3 C16.25 9.625 16.25 9.625 14 13 C13.34 13 12.68 13 12 13 C12 13.66 12 14.32 12 15 C2.20018069 19.70391327 -8.48496997 18.45034897 -19 17 C-19 13.04 -19 9.08 -19 5 C-18.34 5 -17.68 5 -17 5 C-17 8.3 -17 11.6 -17 15 C-15.35 14.67 -13.7 14.34 -12 14 C-11.7834375 13.0409375 -11.7834375 13.0409375 -11.5625 12.0625 C-11 10 -11 10 -10 9 C-9.63239269 6.67182036 -9.29758419 4.3381615 -9 2 C-7.02 2 -5.04 2 -3 2 C-3 2.33 -3 2.66 -3 3 C-4.65 3 -6.3 3 -8 3 C-8 4.32 -8 5.64 -8 7 C-4.04 7 -0.08 7 4 7 C3.67 5.68 3.34 4.36 3 3 C0.525 2.505 0.525 2.505 -2 2 C-1.34 1.34 -0.68 0.68 0 0 Z " fill="#24618A" transform="translate(182,314)"/>
<path d="M0 0 C0.33 0 0.66 0 1 0 C1 9.9 1 19.8 1 30 C1.99 30 2.98 30 4 30 C3.505 32.475 3.505 32.475 3 35 C3.78375 34.34 4.5675 33.68 5.375 33 C8 31 8 31 10 31 C10.33 20.77 10.66 10.54 11 0 C11.66 0.33 12.32 0.66 13 1 C12.67 10.57 12.34 20.14 12 30 C15.96 29.67 19.92 29.34 24 29 C25.65 29.33 27.3 29.66 29 30 C30.125 35.625 30.125 35.625 29 39 C25.47970194 39.19859939 21.95876195 39.38186528 18.4375 39.5625 C16.9515332 39.64661133 16.9515332 39.64661133 15.43554688 39.73242188 C13.98051758 39.80493164 13.98051758 39.80493164 12.49609375 39.87890625 C11.16856079 39.94960327 11.16856079 39.94960327 9.81420898 40.02172852 C7 40 7 40 0 39 C0 26.13 0 13.26 0 0 Z " fill="#396C8E" transform="translate(268,292)"/>
<path d="M0 0 C1.09570312 0.00902344 2.19140625 0.01804688 3.3203125 0.02734375 C4.16335937 0.03894531 5.00640625 0.05054688 5.875 0.0625 C6.54953101 7.74733539 7.0317564 15.34660183 6.875 23.0625 C4.91810341 23.28392255 2.95938048 23.4892568 1 23.6875 C-0.63582031 23.86152344 -0.63582031 23.86152344 -2.3046875 24.0390625 C-3.23539063 24.04679687 -4.16609375 24.05453125 -5.125 24.0625 C-7.125 22.0625 -7.125 22.0625 -7.33618164 20.23071289 C-7.31934326 19.5061792 -7.30250488 18.78164551 -7.28515625 18.03515625 C-7.2687207 16.84696289 -7.2687207 16.84696289 -7.25195312 15.63476562 C-7.23068359 14.80654297 -7.20941406 13.97832031 -7.1875 13.125 C-7.15300534 11.49097507 -7.1228794 9.85685059 -7.09765625 8.22265625 C-7.07968994 7.49699463 -7.06172363 6.77133301 -7.04321289 6.02368164 C-7.04350712 3.846271 -7.04350712 3.846271 -8.125 1.0625 C-5.36047967 -0.31976016 -3.0788637 -0.03275387 0 0 Z " fill="#F39F1E" transform="translate(241.125,175.9375)"/>
<path d="M0 0 C1.37478516 0.01740234 1.37478516 0.01740234 2.77734375 0.03515625 C3.69644531 0.04417969 4.61554688 0.05320312 5.5625 0.0625 C6.27277344 0.07410156 6.98304688 0.08570313 7.71484375 0.09765625 C9.40615369 3.73368789 9.91193223 6.20179948 9.47265625 10.1796875 C9.37597656 11.11103516 9.27929688 12.04238281 9.1796875 13.00195312 C9.01146484 14.44151367 9.01146484 14.44151367 8.83984375 15.91015625 C8.73542969 16.88919922 8.63101563 17.86824219 8.5234375 18.87695312 C8.26498171 21.28529118 7.99512188 23.69177673 7.71484375 26.09765625 C7.38484375 25.43765625 7.05484375 24.77765625 6.71484375 24.09765625 C5.76609375 24.59265625 4.81734375 25.08765625 3.83984375 25.59765625 C0.71484375 27.09765625 0.71484375 27.09765625 -1.28515625 27.09765625 C-3.35902269 22.94992337 -2.73193764 17.60331862 -2.91015625 13.03515625 C-2.96171875 11.90787109 -3.01328125 10.78058594 -3.06640625 9.61914062 C-3.11023438 8.54857422 -3.1540625 7.47800781 -3.19921875 6.375 C-3.23998535 5.38749756 -3.28075195 4.39999512 -3.32275391 3.38256836 C-3.27179875 0.28588473 -3.08934154 0.13202314 0 0 Z " fill="#045187" transform="translate(206.28515625,290.90234375)"/>
<path d="M0 0 C0.82741699 0.01047363 1.65483398 0.02094727 2.50732422 0.03173828 C3.40322266 0.03818359 4.29912109 0.04462891 5.22216797 0.05126953 C6.62789062 0.07640625 6.62789062 0.07640625 8.06201172 0.10205078 C9.00689453 0.11107422 9.95177734 0.12009766 10.92529297 0.12939453 C13.26278464 0.15300556 15.59977295 0.18593562 17.93701172 0.22705078 C19.06201172 3.03955078 19.06201172 3.03955078 19.93701172 6.22705078 C17.93701172 9.22705078 17.93701172 9.22705078 15.77294922 9.95751953 C14.55478516 10.18375 14.55478516 10.18375 13.31201172 10.41455078 C12.49474609 10.57310547 11.67748047 10.73166016 10.83544922 10.89501953 C10.20896484 11.00458984 9.58248047 11.11416016 8.93701172 11.22705078 C8.93701172 10.56705078 8.93701172 9.90705078 8.93701172 9.22705078 C8.27701172 9.22705078 7.61701172 9.22705078 6.93701172 9.22705078 C6.99888672 10.11392578 7.06076172 11.00080078 7.12451172 11.91455078 C6.91636698 15.59177447 6.15494589 17.32667533 3.93701172 20.22705078 C3.27701172 20.22705078 2.61701172 20.22705078 1.93701172 20.22705078 C1.93701172 21.21705078 1.93701172 22.20705078 1.93701172 23.22705078 C1.27701172 23.22705078 0.61701172 23.22705078 -0.06298828 23.22705078 C-0.72298828 19.26705078 -1.38298828 15.30705078 -2.06298828 11.22705078 C-2.39298828 11.22705078 -2.72298828 11.22705078 -3.06298828 11.22705078 C-3.28473761 9.77069707 -3.48997526 8.31182122 -3.68798828 6.85205078 C-3.80400391 6.03994141 -3.92001953 5.22783203 -4.03955078 4.39111328 C-4.04728516 3.67697266 -4.05501953 2.96283203 -4.06298828 2.22705078 C-2.06298828 0.22705078 -2.06298828 0.22705078 0 0 Z " fill="#0A5489" transform="translate(166.06298828125,290.77294921875)"/>
<path d="M0 0 C1.9451 2.91765 2.45276317 4.62537285 3 8 C3.804375 7.979375 4.60875 7.95875 5.4375 7.9375 C8 8 8 8 9 9 C10.34747084 9.23075082 11.70377565 9.41153063 13.0625 9.5625 C14.361875 9.706875 15.66125 9.85125 17 10 C17.02698189 11.62490954 17.04638757 13.24994633 17.0625 14.875 C17.07410156 15.77992188 17.08570313 16.68484375 17.09765625 17.6171875 C17 20 17 20 16 22 C6.76 22 -2.48 22 -12 22 C-12 20.68 -12 19.36 -12 18 C-12.66 18 -13.32 18 -14 18 C-14.50615298 16.73160474 -15.00469099 15.46016898 -15.5 14.1875 C-15.7784375 13.47980469 -16.056875 12.77210938 -16.34375 12.04296875 C-17 10 -17 10 -17 7 C-16.34 7 -15.68 7 -15 7 C-13.35 10.63 -11.7 14.26 -10 18 C-5.05 18.33 -0.1 18.66 5 19 C5 18.34 5 17.68 5 17 C4.34 16.67 3.68 16.34 3 16 C3.33 14.68 3.66 13.36 4 12 C2.68 11.67 1.36 11.34 0 11 C0 7.37 0 3.74 0 0 Z " fill="#E7A641" transform="translate(218,178)"/>
<path d="M0 0 C0.495 0.33 0.99 0.66 1.5 1 C4.07826856 2.03130742 5.29341127 2.02648818 8 1.875 C11.00867673 1.81865774 11.90414547 1.94522598 14.625 3.5 C16.2227151 6.40493655 16.04570666 7.06997246 15.3125 10.1875 C14.2287234 13.7712766 14.2287234 13.7712766 13 15 C10.73882741 15.34224734 8.46444952 15.59910926 6.1875 15.8125 C4.32158203 16.00779297 4.32158203 16.00779297 2.41796875 16.20703125 C-1 16 -1 16 -3.38671875 14.19921875 C-5.46615119 11.3645445 -6 9.51556575 -6 6 C-4.1875 3.625 -4.1875 3.625 -2 2 C-1.34 2 -0.68 2 0 2 C0 1.34 0 0.68 0 0 Z " fill="#09507D" transform="translate(235,161)"/>
<path d="M0 0 C2.31 0 4.62 0 7 0 C6.73958333 1.953125 6.47916667 3.90625 6.21875 5.859375 C5.87757992 9.19796791 6.00843126 12.52273838 6.0625 15.875 C6.06899136 19.34138699 5.68133942 22.5933029 5 26 C0.32687112 25.55066068 -2.38775335 24.98090266 -6 22 C-4 14.66666667 -2 7.33333333 0 0 Z " fill="#306F9A" transform="translate(268,155)"/>
<path d="M0 0 C3.80470451 0.7133821 5.41196019 1.67868421 8 4.5625 C9.1659741 8.57053597 9.43240501 10.61532711 7.6875 14.4375 C6 16.5625 6 16.5625 4 17.5625 C0.02991497 17.93703632 -2.3586894 17.88997775 -5.9375 16.0625 C-8.29743405 13.20197388 -8.73357225 11.23850428 -8.484375 7.53515625 C-7.35495035 2.93548328 -4.47943948 0.8398949 0 0 Z M-2 6.5625 C-2 8.2125 -2 9.8625 -2 11.5625 C-0.68 11.8925 0.64 12.2225 2 12.5625 C2.33 10.9125 2.66 9.2625 3 7.5625 C1.35 7.2325 -0.3 6.9025 -2 6.5625 Z " fill="#F0AE42" transform="translate(330,338.4375)"/>
<path d="M0 0 C10.48435789 -0.37003616 10.48435789 -0.37003616 12.83984375 1.3203125 C14.59743187 3.8649687 14.25593529 5.99276034 14 9 C13.67 9.66 13.34 10.32 13 11 C13.28112064 13.00800456 13.61067967 15.01014051 14 17 C12.35 17 10.7 17 9 17 C8.67 15.68 8.34 14.36 8 13 C7.34 13 6.68 13 6 13 C5.67 14.32 5.34 15.64 5 17 C3.35 17 1.7 17 0 17 C0 11.39 0 5.78 0 0 Z M5 5 C5 5.66 5 6.32 5 7 C5.99 7 6.98 7 8 7 C8 6.34 8 5.68 8 5 C7.01 5 6.02 5 5 5 Z " fill="#EFAF50" transform="translate(207,339)"/>
<path d="M0 0 C2.51532512 0.83844171 3.65242015 1.56966304 5.3125 3.625 C6.35431074 7.22398257 6.03500809 10.41552346 5 14 C2.64720111 16.89575248 1.22449551 16.97594691 -2.5 17.375 C-7.63037975 16.82531646 -7.63037975 16.82531646 -10 14 C-11.19527634 9.38964842 -11.39171176 6.18549559 -9 2 C-5.51195905 -0.32536063 -4.09859246 -0.33457898 0 0 Z M-3 5 C-3.99 5.495 -3.99 5.495 -5 6 C-5 7.65 -5 9.3 -5 11 C-3.05396726 11.59070014 -3.05396726 11.59070014 -1 12 C0.29633621 10.93354885 0.29633621 10.93354885 0.0625 8.4375 C0.041875 7.633125 0.02125 6.82875 0 6 C-0.99 5.67 -1.98 5.34 -3 5 Z " fill="#F0BB6C" transform="translate(194,339)"/>
<path d="M0 0 C5.75 1.875 5.75 1.875 8 3 C7.1025986 9.53821018 5.86311282 15.66541642 4 22 C3.67 22 3.34 22 3 22 C3 19.03 3 16.06 3 13 C0.69 12.34 -1.62 11.68 -4 11 C-4.33 13.64 -4.66 16.28 -5 19 C-6.65 19.66 -8.3 20.32 -10 21 C-10 19.68 -10 18.36 -10 17 C-10.66 16.67 -11.32 16.34 -12 16 C-11.67 17.65 -11.34 19.3 -11 21 C-11.33 20.34 -11.66 19.68 -12 19 C-12.928125 19.2475 -12.928125 19.2475 -13.875 19.5 C-16.51756073 20.12177899 -17.5498653 20.22506735 -20 19 C-17.40986982 17.40021371 -14.94431051 15.97699782 -12.125 14.8125 C-8.23482685 12.55619957 -6.49984392 10.04035873 -4.125 6.3125 C-3.7228125 5.70599609 -3.320625 5.09949219 -2.90625 4.47460938 C-1.92509833 2.99120149 -0.96078048 1.49668248 0 0 Z " fill="#45768D" transform="translate(312,141)"/>
<path d="M0 0 C2.3125 0.9375 2.3125 0.9375 4 3 C4.9674426 6.06160189 5.3249639 8.80078646 5 12 C2.9375 15.0625 2.9375 15.0625 0 17 C-3.75138748 17.70338515 -5.46952264 17.26523868 -8.875 15.5625 C-11.57234891 12.30981455 -11.72978547 10.26679951 -11.484375 6.12890625 C-11 4 -11 4 -8.875 1.4375 C-5.53248818 -0.23375591 -3.68818005 -0.54930341 0 0 Z M-5 6 C-6.01111093 9.04913228 -6.01111093 9.04913228 -5 12 C-3.68 11.67 -2.36 11.34 -1 11 C-0.67 9.68 -0.34 8.36 0 7 C-1.65 6.67 -3.3 6.34 -5 6 Z " fill="#F0BC62" transform="translate(278,339)"/>
<path d="M0 0 C7.63076923 1.47692308 7.63076923 1.47692308 9.5 4.125 C9.7475 5.053125 9.7475 5.053125 10 6 C10.66 6 11.32 6 12 6 C13.26026798 8.52053595 12.91874445 9.8542098 12.5625 12.625 C12.46066406 13.44226563 12.35882813 14.25953125 12.25390625 15.1015625 C12.17011719 15.72804688 12.08632812 16.35453125 12 17 C11.34 17 10.68 17 10 17 C10.495 17.94875 10.99 18.8975 11.5 19.875 C13 23 13 23 13 25 C9.31197956 23.77065985 8.27643027 22.06140622 6 19 C6.66 18.67 7.32 18.34 8 18 C8.65555119 15.47266765 8.65555119 15.47266765 9 13 C8.01 13.66 7.02 14.32 6 15 C5.34 14.34 4.68 13.68 4 13 C3.54625 13.474375 3.0925 13.94875 2.625 14.4375 C-0.07543281 17.03407001 -1.92362668 17.13668178 -5.5625 17.125 C-6.77099609 17.12886719 -6.77099609 17.12886719 -8.00390625 17.1328125 C-10 17 -10 17 -11 16 C-11.04092937 13.66702567 -11.04241723 11.33294775 -11 9 C-10.34 9 -9.68 9 -9 9 C-9.33 10.98 -9.66 12.96 -10 15 C-8.72125 15.020625 -7.4425 15.04125 -6.125 15.0625 C-5.40570313 15.07410156 -4.68640625 15.08570313 -3.9453125 15.09765625 C-1.91814596 15.12649242 -1.91814596 15.12649242 0 14 C0.33 13.01 0.66 12.02 1 11 C-1.97 10.505 -1.97 10.505 -5 10 C-3.06745228 7.9754262 -1.36841312 6.57894208 1 5 C0.67 3.35 0.34 1.7 0 0 Z " fill="#1B5E90" transform="translate(184,291)"/>
<path d="M0 0 C5.83235772 0.11497479 5.83235772 0.11497479 8.1875 2.1875 C9.1875 5.0625 9.1875 5.0625 9.1875 8.1875 C7.16685699 11.06303044 5.82980315 12.01232641 2.4375 12.9375 C1.32375 13.06125 1.32375 13.06125 0.1875 13.1875 C0.1875 14.5075 0.1875 15.8275 0.1875 17.1875 C-1.4625 17.1875 -3.1125 17.1875 -4.8125 17.1875 C-4.83934679 14.54159986 -4.85926357 11.89596904 -4.875 9.25 C-4.88337891 8.49525391 -4.89175781 7.74050781 -4.90039062 6.96289062 C-4.90902441 5.03755687 -4.86474333 3.11214419 -4.8125 1.1875 C-3.8125 0.1875 -3.8125 0.1875 0 0 Z M0.1875 6.1875 C0.1875 6.8475 0.1875 7.5075 0.1875 8.1875 C1.1775 8.1875 2.1675 8.1875 3.1875 8.1875 C3.1875 7.5275 3.1875 6.8675 3.1875 6.1875 C2.1975 6.1875 1.2075 6.1875 0.1875 6.1875 Z " fill="#F0A22B" transform="translate(167.8125,338.8125)"/>
<path d="M0 0 C3.63 0 7.26 0 11 0 C12 4 12 4 11 6 C10.9603287 7.66619446 10.95615553 9.33391013 11 11 C9.824375 11.0928125 9.824375 11.0928125 8.625 11.1875 C7.75875 11.455625 6.8925 11.72375 6 12 C4.62533375 14.47636012 4.62533375 14.47636012 4 17 C2.68 17 1.36 17 0 17 C-1.42868053 11.46386294 -1.81596196 5.44788588 0 0 Z " fill="#EE9D2D" transform="translate(249,339)"/>
<path d="M0 0 C3.23486594 0.70177877 4.89181195 1.36476494 7 4 C7 4.66 7 5.32 7 6 C7.556875 6.2475 8.11375 6.495 8.6875 6.75 C11.44160479 8.23870529 13.69174514 9.88409972 16 12 C16 12.99 16 13.98 16 15 C16.66 15 17.32 15 18 15 C18 15.66 18 16.32 18 17 C16.68 17.33 15.36 17.66 14 18 C14 16.35 14 14.7 14 13 C12.68 13 11.36 13 10 13 C10 12.34 10 11.68 10 11 C8.68 11 7.36 11 6 11 C6.33 12.32 6.66 13.64 7 15 C6.34 15 5.68 15 5 15 C5 13.68 5 12.36 5 11 C4.01 11 3.02 11 2 11 C1.67 12.98 1.34 14.96 1 17 C1.99 17 2.98 17 4 17 C4 18.32 4 19.64 4 21 C4.66 21.33 5.32 21.66 6 22 C5.01 22.33 4.02 22.66 3 23 C2.34 23.99 1.68 24.98 1 26 C-0.76931972 17.06566653 -1.09519281 9.04274067 0 0 Z " fill="#D9A853" transform="translate(193,143)"/>
<path d="M0 0 C4.29 0 8.58 0 13 0 C13.33 1.32 13.66 2.64 14 4 C12.35 4.66 10.7 5.32 9 6 C9 9.63 9 13.26 9 17 C7.35 17 5.7 17 4 17 C3 16 3 16 2.90234375 13.71484375 C2.91394531 12.79832031 2.92554688 11.88179688 2.9375 10.9375 C2.94652344 10.01839844 2.95554688 9.09929687 2.96484375 8.15234375 C2.97644531 7.44207031 2.98804688 6.73179687 3 6 C1.68 5.67 0.36 5.34 -1 5 C-0.67 3.35 -0.34 1.7 0 0 Z " fill="#EAA43C" transform="translate(228,339)"/>
<path d="M0 0 C0.99 0 1.98 0 3 0 C3 1.32 3 2.64 3 4 C3.66 4 4.32 4 5 4 C4.67 2.68 4.34 1.36 4 0 C5.32 0 6.64 0 8 0 C8 0.66 8 1.32 8 2 C9.32 2 10.64 2 12 2 C12 4.31 12 6.62 12 9 C10.73308493 9.67408308 9.46129251 10.33900497 8.1875 11 C7.47980469 11.37125 6.77210938 11.7425 6.04296875 12.125 C4 13 4 13 1 13 C1 13.99 1 14.98 1 16 C1.99 16.33 2.98 16.66 4 17 C4.66 20.96 5.32 24.92 6 29 C2.0376548 24.50934211 0.21104496 20.74358448 -0.25 14.75 C0 12 0 12 2 10 C2 8.68 2 7.36 2 6 C1.01 6 0.02 6 -1 6 C-0.67 4.02 -0.34 2.04 0 0 Z " fill="#F49E1A" transform="translate(195,154)"/>
<path d="M0 0 C0.76054687 -0.01417969 1.52109375 -0.02835938 2.3046875 -0.04296875 C4.125 0.1875 4.125 0.1875 6.125 2.1875 C6.56786767 6.94832745 5.55805609 10.70919972 4.125 15.1875 C3.795 15.1875 3.465 15.1875 3.125 15.1875 C3.125 13.5375 3.125 11.8875 3.125 10.1875 C1.805 10.5175 0.485 10.8475 -0.875 11.1875 C-0.875 10.5275 -0.875 9.8675 -0.875 9.1875 C0.445 8.8575 1.765 8.5275 3.125 8.1875 C3.125 6.2075 3.125 4.2275 3.125 2.1875 C-2.14083378 2.42539574 -7.40601903 2.67397131 -12.67089844 2.93212891 C-14.4591732 3.01834584 -16.2475872 3.1017264 -18.03613281 3.18212891 C-20.61826399 3.29871342 -23.19970973 3.42574796 -25.78125 3.5546875 C-26.57116333 3.58811249 -27.36107666 3.62153748 -28.17492676 3.65597534 C-33.30997616 3.9254355 -37.92056742 4.80085104 -42.875 6.1875 C-42.875 5.5275 -42.875 4.8675 -42.875 4.1875 C-43.535 3.5275 -44.195 2.8675 -44.875 2.1875 C-43.875 1.1875 -43.875 1.1875 -41.99584961 1.08984375 C-41.18124268 1.10144531 -40.36663574 1.11304688 -39.52734375 1.125 C-38.61952148 1.13337891 -37.71169922 1.14175781 -36.77636719 1.15039062 C-35.79829102 1.16263672 -34.82021484 1.17488281 -33.8125 1.1875 C-26.89336317 1.23681034 -20.02756576 1.18702221 -13.125 0.6875 C-8.74800279 0.37742525 -4.38789581 0.08125733 0 0 Z " fill="#1C5574" transform="translate(322.875,197.8125)"/>
<path d="M0 0 C6.6 0 13.2 0 20 0 C20.66 1.98 21.32 3.96 22 6 C20 9 20 9 17.8359375 9.73046875 C16.61777344 9.95669922 16.61777344 9.95669922 15.375 10.1875 C14.55773437 10.34605469 13.74046875 10.50460937 12.8984375 10.66796875 C12.27195313 10.77753906 11.64546875 10.88710938 11 11 C11 9 11 9 12 8 C11.01 8 10.02 8 9 8 C8.34 7.67 7.68 7.34 7 7 C7.33 6.34 7.66 5.68 8 5 C7.67 4.34 7.34 3.68 7 3 C4.69 3.33 2.38 3.66 0 4 C0 2.68 0 1.36 0 0 Z " fill="#064D7F" transform="translate(164,291)"/>
<path d="M0 0 C0.33 0 0.66 0 1 0 C1 12.87 1 25.74 1 39 C-3.95 39.495 -3.95 39.495 -9 40 C-10 39 -10 39 -10.11352539 35.85717773 C-10.11336633 34.46597303 -10.10767506 33.07476239 -10.09765625 31.68359375 C-10.0962413 30.95253922 -10.09482635 30.22148468 -10.09336853 29.46827698 C-10.08775408 27.12464368 -10.07519922 24.78110461 -10.0625 22.4375 C-10.05748686 20.85221492 -10.05292363 19.26692834 -10.04882812 17.68164062 C-10.03777997 13.7877239 -10.02050572 9.89387795 -10 6 C-9.34 5.67 -8.68 5.34 -8 5 C-8 15.56 -8 26.12 -8 37 C-5.36 37 -2.72 37 0 37 C0 24.79 0 12.58 0 0 Z " fill="#3C6F8F" transform="translate(259,292)"/>
<path d="M0 0 C3.96 0 7.92 0 12 0 C11.67 3.3 11.34 6.6 11 10 C8.24921116 10.91692961 6.64051087 11.10886083 3.8125 11.0625 C1.9253125 11.0315625 1.9253125 11.0315625 0 11 C0 7.37 0 3.74 0 0 Z " fill="#446C7F" transform="translate(248,188)"/>
<path d="M0 0 C1.32 0 2.64 0 4 0 C4 3.96 4 7.92 4 12 C6.31 12 8.62 12 11 12 C11.5625 13.9375 11.5625 13.9375 12 16 C11 17 11 17 8.49609375 17.09765625 C7.48675781 17.08605469 6.47742188 17.07445312 5.4375 17.0625 C4.42558594 17.05347656 3.41367187 17.04445313 2.37109375 17.03515625 C1.58863281 17.02355469 0.80617188 17.01195312 0 17 C-0.78109613 13.54705919 -1.13570711 10.35119952 -1.125 6.8125 C-1.12757813 5.95269531 -1.13015625 5.09289062 -1.1328125 4.20703125 C-1 2 -1 2 0 0 Z " fill="#F2B73D" transform="translate(291,339)"/>
<path d="M0 0 C0.598125 0.309375 1.19625 0.61875 1.8125 0.9375 C4.08956772 2.10209704 4.08956772 2.10209704 7 3 C6.75 5.875 6.75 5.875 6 9 C4.02 9.99 4.02 9.99 2 11 C6.29 11 10.58 11 15 11 C15 10.34 15 9.68 15 9 C15.66 9.33 16.32 9.66 17 10 C15 13 15 13 11.8828125 13.65234375 C10.64273438 13.74644531 9.40265625 13.84054688 8.125 13.9375 C6.89007813 14.04964844 5.65515625 14.16179687 4.3828125 14.27734375 C1 14 1 14 -1.3828125 12.19140625 C-3.47075399 9.36209423 -4 7.51575257 -4 4 C-2.0625 1.625 -2.0625 1.625 0 0 Z " fill="#045288" transform="translate(233,163)"/>
<path d="M0 0 C3.96 0.33 7.92 0.66 12 1 C12.125 10.75 12.125 10.75 11 13 C8.69 13 6.38 13 4 13 C3.54427083 11.07942708 3.08854167 9.15885417 2.6328125 7.23828125 C1.93432656 4.76771061 0.9535127 2.38378175 0 0 Z " fill="#3A657D" transform="translate(223,187)"/>
<path d="M0 0 C1.65 0.33 3.3 0.66 5 1 C5 5.95 5 10.9 5 16 C3.35 16.33 1.7 16.66 0 17 C-1.75559942 15.24440058 -1.13221919 12.96417558 -1.13671875 10.62890625 C-1.13285156 9.92636719 -1.12898438 9.22382813 -1.125 8.5 C-1.12886719 7.79746094 -1.13273437 7.09492188 -1.13671875 6.37109375 C-1.12661378 1.12661378 -1.12661378 1.12661378 0 0 Z " fill="#F2B461" transform="translate(310,339)"/>
<path d="M0 0 C1.09570312 0.00902344 2.19140625 0.01804688 3.3203125 0.02734375 C4.16335937 0.03894531 5.00640625 0.05054688 5.875 0.0625 C6.54953101 7.74733539 7.0317564 15.34660183 6.875 23.0625 C4.91810341 23.28392255 2.95938048 23.4892568 1 23.6875 C-0.63582031 23.86152344 -0.63582031 23.86152344 -2.3046875 24.0390625 C-3.23539063 24.04679687 -4.16609375 24.05453125 -5.125 24.0625 C-7.125 22.0625 -7.125 22.0625 -7.33618164 20.23071289 C-7.31934326 19.5061792 -7.30250488 18.78164551 -7.28515625 18.03515625 C-7.2687207 16.84696289 -7.2687207 16.84696289 -7.25195312 15.63476562 C-7.23068359 14.80654297 -7.20941406 13.97832031 -7.1875 13.125 C-7.15300534 11.49097507 -7.1228794 9.85685059 -7.09765625 8.22265625 C-7.07968994 7.49699463 -7.06172363 6.77133301 -7.04321289 6.02368164 C-7.04350712 3.846271 -7.04350712 3.846271 -8.125 1.0625 C-5.36047967 -0.31976016 -3.0788637 -0.03275387 0 0 Z M-5.125 1.0625 C-5.125 7.9925 -5.125 14.9225 -5.125 22.0625 C-1.495 22.0625 2.135 22.0625 5.875 22.0625 C5.91754356 20.06295254 5.91580783 18.06208364 5.875 16.0625 C5.545 15.7325 5.215 15.4025 4.875 15.0625 C4.63972227 12.71262738 4.46113583 10.35693961 4.3125 8 C4.18681641 6.06447266 4.18681641 6.06447266 4.05859375 4.08984375 C3.99800781 3.09082031 3.93742188 2.09179688 3.875 1.0625 C0.905 1.0625 -2.065 1.0625 -5.125 1.0625 Z " fill="#D5AA5B" transform="translate(241.125,175.9375)"/>
<path d="M0 0 C0.33 0 0.66 0 1 0 C0.91249445 2.22988284 0.80430939 4.45896005 0.6875 6.6875 C0.62949219 7.92886719 0.57148438 9.17023438 0.51171875 10.44921875 C-0.01662992 14.1153939 -0.73748566 16.09715141 -3 19 C-6.1875 20.3125 -6.1875 20.3125 -9 21 C-9.66 18.03 -10.32 15.06 -11 12 C-10.01 12 -9.02 12 -8 12 C-8 11.34 -8 10.68 -8 10 C-7.01 10 -6.02 10 -5 10 C-4.67 9.34 -4.34 8.68 -4 8 C-4 9.65 -4 11.3 -4 13 C-4.66 13 -5.32 13 -6 13 C-5.34 13.66 -4.68 14.32 -4 15 C-2.68 10.05 -1.36 5.1 0 0 Z " fill="#1C6E8F" transform="translate(187,256)"/>
<path d="M0 0 C5.75 1.875 5.75 1.875 8 3 C7.6875 6.375 7.6875 6.375 7 10 C6.01 10.66 5.02 11.32 4 12 C2.2421875 10.99088542 0.484375 9.98177083 -1.2734375 8.97265625 C-2.49798475 8.28280949 -3.74289077 7.62855462 -5 7 C-3.35 4.69 -1.7 2.38 0 0 Z " fill="#E5B875" transform="translate(312,141)"/>
<path d="M0 0 C0.66 0.33 1.32 0.66 2 1 C1.67 10.57 1.34 20.14 1 30 C4.96 29.67 8.92 29.34 13 29 C14.65 29.33 16.3 29.66 18 30 C13.69044321 32.87303786 9.98699311 32.0083241 4.93359375 31.77734375 C3.96550781 31.85082031 2.99742187 31.92429687 2 32 C1.34 32.99 0.68 33.98 0 35 C-3.035651 36.92257897 -4.21850924 37 -8 37 C-7.3125 35.125 -7.3125 35.125 -6 33 C-4.35 32.34 -2.7 31.68 -1 31 C-0.67 20.77 -0.34 10.54 0 0 Z " fill="#528AB0" transform="translate(279,292)"/>
<path d="M0 0 C3.63 0 7.26 0 11 0 C11.33 1.65 11.66 3.3 12 5 C8.81175432 6.59412284 5.37103338 6.10174735 1.875 6.0625 C1.12089844 6.05798828 0.36679687 6.05347656 -0.41015625 6.04882812 C-2.27347127 6.03703499 -4.13674555 6.01909942 -6 6 C-5.67 5.34 -5.34 4.68 -5 4 C-4.01 4 -3.02 4 -2 4 C-1.34 2.68 -0.68 1.36 0 0 Z " fill="#044F84" transform="translate(281,323)"/>
<path d="M0 0 C2 2 2 2 2.1953125 5.6953125 C2.182009 7.17200108 2.15814835 8.64862358 2.125 10.125 C2.11597656 10.87910156 2.10695312 11.63320313 2.09765625 12.41015625 C2.0740687 14.27357254 2.03819719 16.13682593 2 18 C3.65 17.01 5.3 16.02 7 15 C6.67 13.68 6.34 12.36 6 11 C6.99 11.66 7.98 12.32 9 13 C9.33 9.37 9.66 5.74 10 2 C10.33 2 10.66 2 11 2 C11.78441153 8.56492112 12.10914408 14.46837378 11 21 C10.67 20.34 10.34 19.68 10 19 C9.05125 19.495 8.1025 19.99 7.125 20.5 C4 22 4 22 2 22 C0.82530556 19.65061112 0.79965111 18.04926795 0.68359375 15.4296875 C0.64169922 14.53378906 0.59980469 13.63789063 0.55664062 12.71484375 C0.51732422 11.77769531 0.47800781 10.84054687 0.4375 9.875 C0.39431641 8.93011719 0.35113281 7.98523438 0.30664062 7.01171875 C0.20040928 4.67462908 0.09836824 2.3374317 0 0 Z " fill="#0A4D79" transform="translate(203,296)"/>
<path d="M0 0 C-0.22265625 1.859375 -0.22265625 1.859375 -1 4 C-2.99609375 5.265625 -2.99609375 5.265625 -5.4375 6.25 C-6.64212891 6.75273437 -6.64212891 6.75273437 -7.87109375 7.265625 C-10 8 -10 8 -12 8 C-11.773125 8.66 -11.54625 9.32 -11.3125 10 C-10.87669944 14.18368542 -12.33630342 17.21203546 -14 21 C-14.66 20.67 -15.32 20.34 -16 20 C-15.4740625 18.329375 -15.4740625 18.329375 -14.9375 16.625 C-13.65478068 11.61970361 -14.23370247 7.05342157 -15 2 C-13.68 1.67 -12.36 1.34 -11 1 C-11 1.99 -11 2.98 -11 4 C-10.443125 3.525625 -9.88625 3.05125 -9.3125 2.5625 C-6.29032347 0.52048883 -3.61593269 0 0 0 Z " fill="#3E769A" transform="translate(212,201)"/>
<path d="M0 0 C3.63 0 7.26 0 11 0 C12 4 12 4 11 6 C10.9603287 7.66619446 10.95615553 9.33391013 11 11 C9.68 10.67 8.36 10.34 7 10 C7.33 9.01 7.66 8.02 8 7 C6.68 7 5.36 7 4 7 C4 6.34 4 5.68 4 5 C3.34 5 2.68 5 2 5 C1.67 3.68 1.34 2.36 1 1 C1 2.98 1 4.96 1 7 C0.34 7 -0.32 7 -1 7 C-0.67 4.69 -0.34 2.38 0 0 Z " fill="#F2BB56" transform="translate(249,339)"/>
<path d="M0 0 C3.3 0 6.6 0 10 0 C11.86665742 3.89718171 12.13965761 6.54084185 11.625 10.8125 C11.45871094 12.27623047 11.45871094 12.27623047 11.2890625 13.76953125 C11.14597656 14.87361328 11.14597656 14.87361328 11 16 C10.67 16 10.34 16 10 16 C9.67 14.02 9.34 12.04 9 10 C8.01 10 7.02 10 6 10 C6.33 8.35 6.66 6.7 7 5 C4.36 5 1.72 5 -1 5 C-0.67 3.35 -0.34 1.7 0 0 Z " fill="#19608D" transform="translate(204,291)"/>
<path d="M0 0 C3.3 0 6.6 0 10 0 C10.33 0.66 10.66 1.32 11 2 C8.69 2.33 6.38 2.66 4 3 C3.67 5.31 3.34 7.62 3 10 C3.66 10 4.32 10 5 10 C5 10.99 5 11.98 5 13 C3.35 13 1.7 13 0 13 C-1.93443317 10.15524534 -1.99127818 8.89882691 -1.6875 5.375 C-1 2 -1 2 0 0 Z " fill="#F0AF42" transform="translate(185,341)"/>
<path d="M0 0 C1.45792884 -0.05399736 2.91642712 -0.09279177 4.375 -0.125 C5.18710938 -0.14820313 5.99921875 -0.17140625 6.8359375 -0.1953125 C9 0 9 0 11 2 C11.24291992 4.27490234 11.24291992 4.27490234 11.23046875 7.0859375 C11.22853516 8.09914063 11.22660156 9.11234375 11.22460938 10.15625 C11.21236328 11.2184375 11.20011719 12.280625 11.1875 13.375 C11.18685547 14.42945313 11.18621094 15.48390625 11.18554688 16.5703125 C11.13665083 25.13255262 11.13665083 25.13255262 10 29 C9.34 29 8.68 29 8 29 C7.67 28.01 7.34 27.02 7 26 C7.33 25.34 7.66 24.68 8 24 C8.15222973 22.33434251 8.24917215 20.66343504 8.31640625 18.9921875 C8.35830078 18.00605469 8.40019531 17.01992188 8.44335938 16.00390625 C8.48267578 14.97136719 8.52199219 13.93882812 8.5625 12.875 C8.60568359 11.83472656 8.64886719 10.79445313 8.69335938 9.72265625 C8.7996288 7.14857472 8.90166583 4.57439492 9 2 C6.03 2 3.06 2 0 2 C0 1.34 0 0.68 0 0 Z " fill="#507D94" transform="translate(230,291)"/>
<path d="M0 0 C0.33 0 0.66 0 1 0 C1.04898438 1.04800781 1.09796875 2.09601563 1.1484375 3.17578125 C1.22348143 4.55471354 1.29902857 5.9336185 1.375 7.3125 C1.4059375 8.00279297 1.436875 8.69308594 1.46875 9.40429688 C1.68124919 13.06990789 1.91933861 14.87900792 4 18 C4.99 18.33 5.98 18.66 7 19 C7 20.65 7 22.3 7 24 C6.34 24 5.68 24 5 24 C5 24.66 5 25.32 5 26 C4.01 26 3.02 26 2 26 C2 26.66 2 27.32 2 28 C1.34 28 0.68 28 0 28 C0 18.76 0 9.52 0 0 Z " fill="#0C4F7E" transform="translate(177,240)"/>
<path d="M0 0 C1.41047328 3.77934507 0.53653187 6.13659943 -0.75 9.875 C-3.02866346 16.84549482 -4.57672018 23.80812394 -6 31 C-6.33 31 -6.66 31 -7 31 C-7.33 28.03 -7.66 25.06 -8 22 C-7.34 22 -6.68 22 -6 22 C-5.67 20.02 -5.34 18.04 -5 16 C-5.66 15.67 -6.32 15.34 -7 15 C-6.01 15 -5.02 15 -4 15 C-4.04640625 14.16855469 -4.0928125 13.33710938 -4.140625 12.48046875 C-4.17671875 11.39378906 -4.2128125 10.30710938 -4.25 9.1875 C-4.29640625 8.10855469 -4.3428125 7.02960938 -4.390625 5.91796875 C-4 3 -4 3 -1.984375 1.11328125 C-1.00210938 0.56220703 -1.00210938 0.56220703 0 0 Z " fill="#407898" transform="translate(191,229)"/>
<path d="M0 0 C2.05078125 0.03255208 4.1015625 0.06510417 6.15234375 0.09765625 C6.35374851 3.72294193 6.0101114 5.96267333 4.15234375 9.09765625 C1.84234375 9.09765625 -0.46765625 9.09765625 -2.84765625 9.09765625 C-2.9453125 2.9453125 -2.9453125 2.9453125 -2.84765625 1.09765625 C-1.84765625 0.09765625 -1.84765625 0.09765625 0 0 Z " fill="#41646E" transform="translate(273.84765625,187.90234375)"/>
<path d="M0 0 C2.97 0.495 2.97 0.495 6 1 C6 1.66 6 2.32 6 3 C8.97 3.495 8.97 3.495 12 4 C12 4.66 12 5.32 12 6 C13.32 6 14.64 6 16 6 C15.35014905 10.71370756 13.48438608 14.57686444 11.4375 18.8125 C10.9434668 19.85180664 10.9434668 19.85180664 10.43945312 20.91210938 C9.63127749 22.61044948 8.81631623 24.30555769 8 26 C7.67 26 7.34 26 7 26 C6.81046316 19.36621062 7.77401032 16.15042493 12 11 C12.77833534 8.81785432 12.77833534 8.81785432 13 7 C12.05125 6.690625 11.1025 6.38125 10.125 6.0625 C7 5 7 5 5 4 C5 3.34 5 2.68 5 2 C3.35 1.67 1.7 1.34 0 1 C0 0.67 0 0.34 0 0 Z " fill="#C7A661" transform="translate(298,168)"/>
<path d="M0 0 C0.33 0 0.66 0 1 0 C1 1.65 1 3.3 1 5 C1.969375 5.144375 2.93875 5.28875 3.9375 5.4375 C7 6 7 6 8 7 C8.04080783 8.99958364 8.04254356 11.00045254 8 13 C3.44262737 12.56179109 0.42346555 12.14958831 -3 9 C-2.01 6.03 -1.02 3.06 0 0 Z " fill="#547E8B" transform="translate(265,168)"/>
<path d="M0 0 C1.134375 0.020625 2.26875 0.04125 3.4375 0.0625 C2.4475 0.5575 2.4475 0.5575 1.4375 1.0625 C1.47875 2.155625 1.52 3.24875 1.5625 4.375 C1.4375 8.0625 1.4375 8.0625 -0.5625 11.0625 C-0.5625 12.0525 -0.5625 13.0425 -0.5625 14.0625 C-1.5525 14.3925 -2.5425 14.7225 -3.5625 15.0625 C-4.47990621 11.93895029 -4.69710306 9.12563562 -4.6875 5.875 C-4.69007813 4.99457031 -4.69265625 4.11414063 -4.6953125 3.20703125 C-4.46877737 -0.45084484 -3.81713135 0.06696722 0 0 Z " fill="#F89E16" transform="translate(267.5625,180.9375)"/>
<path d="M0 0 C0.33 0.66 0.66 1.32 1 2 C8.92 2 16.84 2 25 2 C25 1.34 25 0.68 25 0 C25.66 0 26.32 0 27 0 C26.67 0.99 26.34 1.98 26 3 C26.66 3.66 27.32 4.32 28 5 C23.9472484 5.98248524 20.16138263 6.08159574 16 6 C15.67 5.34 15.34 4.68 15 4 C14.09636719 4.09539062 13.19273437 4.19078125 12.26171875 4.2890625 C11.08222656 4.39992187 9.90273438 4.51078125 8.6875 4.625 C7.51574219 4.74101562 6.34398437 4.85703125 5.13671875 4.9765625 C2 5 2 5 -1 3 C-0.67 2.01 -0.34 1.02 0 0 Z " fill="#E2BA68" transform="translate(278,194)"/>
<path d="M0 0 C4.29 0 8.58 0 13 0 C13.33 1.32 13.66 2.64 14 4 C13.01 4.495 13.01 4.495 12 5 C12 4.01 12 3.02 12 2 C8.37 2 4.74 2 1 2 C1 2.66 1 3.32 1 4 C2.32 4.33 3.64 4.66 5 5 C5 8.3 5 11.6 5 15 C6.32 15.33 7.64 15.66 9 16 C9 16.33 9 16.66 9 17 C7.33388095 17.042721 5.66617115 17.04063832 4 17 C3 16 3 16 2.90234375 13.71484375 C2.91394531 12.79832031 2.92554688 11.88179688 2.9375 10.9375 C2.94652344 10.01839844 2.95554688 9.09929687 2.96484375 8.15234375 C2.97644531 7.44207031 2.98804688 6.73179687 3 6 C1.68 5.67 0.36 5.34 -1 5 C-0.67 3.35 -0.34 1.7 0 0 Z " fill="#F0C682" transform="translate(228,339)"/>
<path d="M0 0 C0.33 0 0.66 0 1 0 C0.67 2.97 0.34 5.94 0 9 C0.99 9 1.98 9 3 9 C3 10.32 3 11.64 3 13 C8.61 13.33 14.22 13.66 20 14 C20 14.33 20 14.66 20 15 C12.08 15 4.16 15 -4 15 C-1.75 3.75 -1.75 3.75 0 0 Z " fill="#EDA333" transform="translate(283,181)"/>
<path d="M0 0 C2 3 2 3 1.625 5.6875 C1.41875 6.450625 1.2125 7.21375 1 8 C2.32 8 3.64 8 5 8 C7.21883215 9.5614004 7.89647642 10.63640498 8.640625 13.25 C9.04749141 16.36341249 8.69106071 18.74364479 8.0625 21.8125 C7.86785156 22.78832031 7.67320312 23.76414063 7.47265625 24.76953125 C7.31667969 25.50558594 7.16070312 26.24164063 7 27 C6.01 26.01 5.02 25.02 4 24 C5.485 18.555 5.485 18.555 7 13 C5.02 13 3.04 13 1 13 C-0.9078584 9.8250906 -1.1609041 7.89414789 -0.625 4.25 C-0.51414062 3.45078125 -0.40328125 2.6515625 -0.2890625 1.828125 C-0.19367188 1.22484375 -0.09828125 0.6215625 0 0 Z " fill="#4A7B9E" transform="translate(268,142)"/>
<path d="M0 0 C0.556875 0.28875 1.11375 0.5775 1.6875 0.875 C4.08494645 2.0413253 6.51596939 3.0339881 9 4 C2.16077431 7.68265999 -3.27173534 8.19753499 -10.875 7.625 C-11.75414062 7.56828125 -12.63328125 7.5115625 -13.5390625 7.453125 C-15.69342162 7.31262332 -17.84683563 7.1577566 -20 7 C-20 6.34 -20 5.68 -20 5 C-9.605 4.505 -9.605 4.505 1 4 C0.34 3.34 -0.32 2.68 -1 2 C-0.67 1.34 -0.34 0.68 0 0 Z " fill="#2C6081" transform="translate(322,324)"/>
<path d="M0 0 C2 2 2 2 2.25 5.375 C2.02515633 8.63523324 1.7239511 10.30632641 0 13 C0.66 13 1.32 13 2 13 C2 14.65 2 16.3 2 18 C1.34 18.33 0.68 18.66 0 19 C-0.36122881 17.68942607 -0.71380311 16.37646376 -1.0625 15.0625 C-1.35833984 13.96615234 -1.35833984 13.96615234 -1.66015625 12.84765625 C-1.77230469 12.23792969 -1.88445312 11.62820313 -2 11 C-1.67 10.67 -1.34 10.34 -1 10 C-0.76712992 8.31816052 -0.58735834 6.6287584 -0.4375 4.9375 C-0.35371094 4.01839844 -0.26992187 3.09929687 -0.18359375 2.15234375 C-0.12300781 1.44207031 -0.06242188 0.73179687 0 0 Z M-2 18 C-0.68 18.66 0.64 19.32 2 20 C2 20.99 2 21.98 2 23 C-1.14930893 24.04976964 -3.38814456 24.10131595 -6.6875 24.0625 C-7.68136719 24.05347656 -8.67523438 24.04445313 -9.69921875 24.03515625 C-10.83810547 24.01775391 -10.83810547 24.01775391 -12 24 C-12 23.67 -12 23.34 -12 23 C-8.97265625 22.26757812 -8.97265625 22.26757812 -5.9453125 21.53515625 C-3.9414343 21.05153008 -3.9414343 21.05153008 -2 20 C-2 19.34 -2 18.68 -2 18 Z " fill="#37759C" transform="translate(228,308)"/>
<path d="M0 0 C0.99 0.33 1.98 0.66 3 1 C2.84402344 1.55429688 2.68804687 2.10859375 2.52734375 2.6796875 C2.33269531 3.40414062 2.13804687 4.12859375 1.9375 4.875 C1.74027344 5.59429687 1.54304688 6.31359375 1.33984375 7.0546875 C0.78867393 9.07273593 0.78867393 9.07273593 2 11 C0.35 11 -1.3 11 -3 11 C-3 10.34 -3 9.68 -3 9 C-4.98 8.34 -6.96 7.68 -9 7 C-9 6.01 -9 5.02 -9 4 C-3.375 2 -3.375 2 0 2 C0 1.34 0 0.68 0 0 Z " fill="#065080" transform="translate(300,157)"/>
<path d="M0 0 C1.485 0.99 1.485 0.99 3 2 C3 2.66 3 3.32 3 4 C3.66 4 4.32 4 5 4 C6.26026798 6.52053595 5.91874445 7.8542098 5.5625 10.625 C5.46066406 11.44226563 5.35882813 12.25953125 5.25390625 13.1015625 C5.17011719 13.72804688 5.08632812 14.35453125 5 15 C4.34 15 3.68 15 3 15 C3.495 15.94875 3.99 16.8975 4.5 17.875 C6 21 6 21 6 23 C2.31197956 21.77065985 1.27643027 20.06140622 -1 17 C-0.34 16.67 0.32 16.34 1 16 C1.46777038 13.942506 1.46777038 13.942506 1.625 11.5625 C1.69976562 10.75941406 1.77453125 9.95632813 1.8515625 9.12890625 C1.94735428 7.75505053 2 6.3771912 2 5 C1.34 5 0.68 5 0 5 C0 3.35 0 1.7 0 0 Z " fill="#3D7799" transform="translate(191,293)"/>
<path d="M0 0 C0.89203125 0.29648437 1.7840625 0.59296875 2.703125 0.8984375 C3.37859375 1.13820313 4.0540625 1.37796875 4.75 1.625 C3.75 4.625 3.75 4.625 2.25 6 C0.31690264 8.09418881 0.12547204 9.84650692 -0.25 12.625 C-1.9 11.305 -3.55 9.985 -5.25 8.625 C-4.59 8.295 -3.93 7.965 -3.25 7.625 C-3.25 5.645 -3.25 3.665 -3.25 1.625 C-6.22 1.13 -6.22 1.13 -9.25 0.625 C-5.71808845 -1.66909208 -3.91045087 -1.33778582 0 0 Z " fill="#216695" transform="translate(326.25,292.375)"/>
<path d="M0 0 C2 2 2 2 2.25 4.6875 C1.96858029 8.41631117 1.13712906 11.44647167 0 15 C-0.33 15 -0.66 15 -1 15 C-1 13.35 -1 11.7 -1 10 C-2.32 10.33 -3.64 10.66 -5 11 C-5 10.34 -5 9.68 -5 9 C-3.68 8.67 -2.36 8.34 -1 8 C-1 6.02 -1 4.04 -1 2 C-6.94 2 -12.88 2 -19 2 C-19 1.67 -19 1.34 -19 1 C-6.03422053 -0.6730038 -6.03422053 -0.6730038 0 0 Z " fill="#3B6F96" transform="translate(327,198)"/>
<path d="M0 0 C1.98 0.66 3.96 1.32 6 2 C6 2.66 6 3.32 6 4 C4.35 4 2.7 4 1 4 C1.34786708 5.97536745 1.34786708 5.97536745 2 8 C2.66 8.33 3.32 8.66 4 9 C2.6875 10.5 2.6875 10.5 1 12 C0.01 12 -0.98 12 -2 12 C-2.66 13.32 -3.32 14.64 -4 16 C-4.66 16 -5.32 16 -6 16 C-4.78959402 11.15837609 -3.1385526 7.01376002 -0.8046875 2.6015625 C0.07482604 1.14979965 0.07482604 1.14979965 0 0 Z " fill="#F0A83B" transform="translate(291,164)"/>
<path d="M0 0 C0 0.66 0 1.32 0 2 C-0.93066284 2.08302368 -0.93066284 2.08302368 -1.88012695 2.16772461 C-4.69126637 2.42060348 -7.50187322 2.67898834 -10.3125 2.9375 C-11.77719727 3.06801758 -11.77719727 3.06801758 -13.27148438 3.20117188 C-14.67817383 3.33168945 -14.67817383 3.33168945 -16.11328125 3.46484375 C-16.97735596 3.543396 -17.84143066 3.62194824 -18.73168945 3.70288086 C-21.16086712 3.94787977 -21.16086712 3.94787977 -24 5 C-26.26171875 4.66015625 -26.26171875 4.66015625 -28.6875 4.0625 C-29.89986328 3.77052734 -29.89986328 3.77052734 -31.13671875 3.47265625 C-32.05904297 3.23869141 -32.05904297 3.23869141 -33 3 C-33 2.67 -33 2.34 -33 2 C-9.04304722 -0.09679103 -9.04304722 -0.09679103 0 0 Z " fill="#6F9FB9" transform="translate(251,200)"/>
<path d="M0 0 C2.97 0 5.94 0 9 0 C9 10.23 9 20.46 9 31 C8.34 30.67 7.68 30.34 7 30 C7.33 21.09 7.66 12.18 8 3 C5.03 3 2.06 3 -1 3 C-0.67 2.01 -0.34 1.02 0 0 Z " fill="#144C75" transform="translate(270,291)"/>
<path d="M0 0 C1.9451 2.91765 2.45276317 4.62537285 3 8 C4.65 8 6.3 8 8 8 C7.34 8.66 6.68 9.32 6 10 C6.495 10.86625 6.99 11.7325 7.5 12.625 C9.0477761 16.10749623 9.26802896 18.24759458 9 22 C8.34 22 7.68 22 7 22 C6.64192708 19.98177083 6.28385417 17.96354167 5.92578125 15.9453125 C4.94769277 13.32291984 4.94769277 13.32291984 0 12 C0 8.04 0 4.08 0 0 Z " fill="#E4B25F" transform="translate(218,178)"/>
<path d="M0 0 C0.66 0.33 1.32 0.66 2 1 C2.97956341 4.91825366 3.38690304 7.15249811 1.6875 10.875 C0 13 0 13 -2 14 C-4.3329866 14.04022391 -6.66706666 14.04320247 -9 14 C-9 13.67 -9 13.34 -9 13 C-7.35 13 -5.7 13 -4 13 C-4 12.01 -4 11.02 -4 10 C-5.32 10 -6.64 10 -8 10 C-7.67 9.34 -7.34 8.68 -7 8 C-6.01 8 -5.02 8 -4 8 C-4 6.35 -4 4.7 -4 3 C-3.34 3 -2.68 3 -2 3 C-1.875 8.75 -1.875 8.75 -3 11 C-2.34 11 -1.68 11 -1 11 C-0.83197949 9.54182203 -0.66562857 8.0834516 -0.5 6.625 C-0.4071875 5.81289063 -0.314375 5.00078125 -0.21875 4.1640625 C0.03352351 2.03087175 0.03352351 2.03087175 0 0 Z " fill="#F0BF70" transform="translate(336,342)"/>
<path d="M0 0 C0.99 0.33 1.98 0.66 3 1 C4.99961564 1.03920815 7.00049364 1.04443347 9 1 C9 1.99 9 2.98 9 4 C6.69 3.67 4.38 3.34 2 3 C2 6.3 2 9.6 2 13 C1.01 12.67 0.02 12.34 -1 12 C-1.22162329 10.37675914 -1.42689803 8.751279 -1.625 7.125 C-1.74101562 6.22007812 -1.85703125 5.31515625 -1.9765625 4.3828125 C-1.98429687 3.59648437 -1.99203125 2.81015625 -2 2 C-1.34 1.34 -0.68 0.68 0 0 Z " fill="#F1A334" transform="translate(270,340)"/>
<path d="M0 0 C5.72080292 0.09580292 5.72080292 0.09580292 8.75 3.125 C9.430625 4.795625 9.430625 4.795625 10.125 6.5 C10.558125 7.53125 10.99125 8.5625 11.4375 9.625 C12.13893425 12.55827051 11.95869253 13.70503079 11.125 16.5 C10.47142722 15.27493102 9.82751767 14.04470484 9.1875 12.8125 C8.82785156 12.12800781 8.46820313 11.44351563 8.09765625 10.73828125 C7.125 8.5 7.125 8.5 6.125 3.5 C-0.805 3.005 -0.805 3.005 -7.875 2.5 C-5.21319828 -0.16180172 -3.71258981 0.10892684 0 0 Z " fill="#275462" transform="translate(190.875,176.5)"/>
<path d="M0 0 C-0.1875 2.375 -0.1875 2.375 -1 5 C-3.5625 6.3125 -3.5625 6.3125 -6 7 C-6 5.68 -6 4.36 -6 3 C-6.66 2.67 -7.32 2.34 -8 2 C-7.67 3.65 -7.34 5.3 -7 7 C-7.33 6.34 -7.66 5.68 -8 5 C-8.61875 5.165 -9.2375 5.33 -9.875 5.5 C-12.51756073 6.12177899 -13.5498653 6.22506735 -16 5 C-5.55789474 -1.85263158 -5.55789474 -1.85263158 0 0 Z " fill="#055285" transform="translate(308,155)"/>
<path d="M0 0 C0.99 0.66 1.98 1.32 3 2 C3.25660094 5.07921132 3.39431504 7.21136993 2 10 C2.28112064 12.00800456 2.61067967 14.01014051 3 16 C1.35 16 -0.3 16 -2 16 C-2.6875 14.375 -2.6875 14.375 -3 12 C-2 10 -1 8 0 6 C0.25196823 2.74899636 0.25196823 2.74899636 0 0 Z " fill="#EDB14B" transform="translate(218,340)"/>
<path d="M0 0 C5.83235772 0.11497479 5.83235772 0.11497479 8.1875 2.1875 C9.0625 5.1875 9.0625 5.1875 9.1875 8.1875 C8.5275 8.8475 7.8675 9.5075 7.1875 10.1875 C6.8575 7.8775 6.5275 5.5675 6.1875 3.1875 C3.2175 3.1875 0.2475 3.1875 -2.8125 3.1875 C-3.1425 7.4775 -3.4725 11.7675 -3.8125 16.1875 C-2.4925 16.5175 -1.1725 16.8475 0.1875 17.1875 C-1.4625 17.1875 -3.1125 17.1875 -4.8125 17.1875 C-4.83934679 14.54159986 -4.85926357 11.89596904 -4.875 9.25 C-4.88337891 8.49525391 -4.89175781 7.74050781 -4.90039062 6.96289062 C-4.90902441 5.03755687 -4.86474333 3.11214419 -4.8125 1.1875 C-3.8125 0.1875 -3.8125 0.1875 0 0 Z " fill="#F1C884" transform="translate(167.8125,338.8125)"/>
<path d="M0 0 C0.99 0 1.98 0 3 0 C3 1.32 3 2.64 3 4 C5.97 4.495 5.97 4.495 9 5 C8.67 6.32 8.34 7.64 8 9 C6.02 9.33 4.04 9.66 2 10 C2 8.68 2 7.36 2 6 C1.01 6 0.02 6 -1 6 C-0.67 4.02 -0.34 2.04 0 0 Z " fill="#F89F1A" transform="translate(195,154)"/>
<path d="M0 0 C1.98 0 3.96 0 6 0 C5.73958333 1.953125 5.47916667 3.90625 5.21875 5.859375 C4.93222643 8.30458395 4.93222643 8.30458395 5 12 C4.67 12.99 4.34 13.98 4 15 C1.4835489 12.37869677 1.00762748 11.2135695 0.875 7.5 C0.91625 6.345 0.9575 5.19 1 4 C0.57145005 1.68963085 0.57145005 1.68963085 0 0 Z " fill="#085183" transform="translate(269,155)"/>
<path d="M0 0 C0.33 0 0.66 0 1 0 C1.12117188 0.63808594 1.24234375 1.27617187 1.3671875 1.93359375 C1.53476562 2.75988281 1.70234375 3.58617187 1.875 4.4375 C2.03742188 5.26121094 2.19984375 6.08492188 2.3671875 6.93359375 C2.57601563 7.61550781 2.78484375 8.29742187 3 9 C3.66 9.33 4.32 9.66 5 10 C4.67 8.02 4.34 6.04 4 4 C6 6 6 6 6 9 C7.65 9 9.3 9 11 9 C11 10.32 11 11.64 11 13 C7.42576047 13.3324874 5.36416656 13.18208328 2.125 11.5625 C-0.65656376 8.20826135 -0.41425212 6.05246619 -0.17578125 1.828125 C-0.11777344 1.22484375 -0.05976563 0.6215625 0 0 Z " fill="#ECAF4F" transform="translate(267,343)"/>
<path d="M0 0 C2.31 0 4.62 0 7 0 C7.33 2.97 7.66 5.94 8 9 C6.02 9 4.04 9 2 9 C3.32 8.67 4.64 8.34 6 8 C5.195625 7.79375 4.39125 7.5875 3.5625 7.375 C2.2940625 6.694375 2.2940625 6.694375 1 6 C0.1875 2.875 0.1875 2.875 0 0 Z " fill="#F99C15" transform="translate(238,188)"/>
<path d="M0 0 C4.59037956 1.14759489 5.33669182 2.29039218 8 6 C7.01 7.485 7.01 7.485 6 9 C3.375 9.1875 3.375 9.1875 1 9 C0.67 6.03 0.34 3.06 0 0 Z " fill="#668088" transform="translate(193,143)"/>
<path d="M0 0 C2.26812142 1.7820954 2.94691251 2.65909504 3.3984375 5.55859375 C3.39070312 6.50863281 3.38296875 7.45867187 3.375 8.4375 C3.38273438 9.38496094 3.39046875 10.33242187 3.3984375 11.30859375 C2.94790217 14.35191571 2.02617742 15.73261099 0 18 C-1.125 14.25 -1.125 14.25 0 12 C0.12579825 9.10664025 0.14172505 6.56690022 -0.5625 3.75 C-1 2 -1 2 0 0 Z " fill="#387495" transform="translate(250,141)"/>
<path d="M0 0 C-0.66 1.65 -1.32 3.3 -2 5 C-5.3 5.33 -8.6 5.66 -12 6 C-11.34 5.67 -10.68 5.34 -10 5 C-9.5359375 4.01 -9.5359375 4.01 -9.0625 3 C-7.10851109 -0.67809678 -3.73028092 -0.1008184 0 0 Z " fill="#064D7A" transform="translate(227,325)"/>
<path d="M0 0 C0.33 0 0.66 0 1 0 C1.33 5.94 1.66 11.88 2 18 C2.66 18 3.32 18 4 18 C4 20.31 4 22.62 4 25 C1.29804376 22.53299648 0.09210468 20.69135891 -0.11352539 16.9152832 C-0.10828857 16.13499756 -0.10305176 15.35471191 -0.09765625 14.55078125 C-0.09443359 13.70322266 -0.09121094 12.85566406 -0.08789062 11.98242188 C-0.07951172 11.10134766 -0.07113281 10.22027344 -0.0625 9.3125 C-0.05798828 8.41982422 -0.05347656 7.52714844 -0.04882812 6.60742188 C-0.03704983 4.40488013 -0.02060164 2.20247401 0 0 Z " fill="#72A0BE" transform="translate(203,300)"/>
<path d="M0 0 C0.33 0 0.66 0 1 0 C0.91249445 2.22988284 0.80430939 4.45896005 0.6875 6.6875 C0.62949219 7.92886719 0.57148438 9.17023438 0.51171875 10.44921875 C-0.00910976 14.06321199 -0.90154617 16.05766393 -3 19 C-3.66 18.67 -4.32 18.34 -5 18 C-3.35 12.06 -1.7 6.12 0 0 Z " fill="#437EA0" transform="translate(187,256)"/>
<path d="M0 0 C1.47906892 -0.02689216 2.95827483 -0.04634621 4.4375 -0.0625 C5.26121094 -0.07410156 6.08492187 -0.08570313 6.93359375 -0.09765625 C9 0 9 0 10 1 C10.04063832 2.66617115 10.042721 4.33388095 10 6 C9.01 6 8.02 6 7 6 C7 5.01 7 4.02 7 3 C4.36 3 1.72 3 -1 3 C-0.67 2.01 -0.34 1.02 0 0 Z " fill="#F49C1E" transform="translate(165,341)"/>
<path d="M0 0 C1.97625073 2.9643761 3.29886906 5.78787746 4.6875 9.0625 C5.14511719 10.12597656 5.60273438 11.18945312 6.07421875 12.28515625 C6.37972656 13.18105469 6.68523437 14.07695312 7 15 C6.67 15.66 6.34 16.32 6 17 C3.2027092 14.93243723 2.97307727 13.85559629 2.3125 10.3125 C2.209375 9.219375 2.10625 8.12625 2 7 C1.34 7 0.68 7 0 7 C0 4.69 0 2.38 0 0 Z " fill="#EEB34F" transform="translate(211,161)"/>
<path d="M0 0 C1.98 0 3.96 0 6 0 C6 2.31 6 4.62 6 7 C4.68 7 3.36 7 2 7 C0 4 0 4 0 0 Z " fill="#F2A326" transform="translate(312,143)"/>
<path d="M0 0 C0.99 0 1.98 0 3 0 C2.67 1.98 2.34 3.96 2 6 C8.27 6.33 14.54 6.66 21 7 C21 7.33 21 7.66 21 8 C14.07 8 7.14 8 0 8 C0 5.36 0 2.72 0 0 Z " fill="#0D4B76" transform="translate(269,322)"/>
<path d="M0 0 C1.98 0 3.96 0 6 0 C6 0.33 6 0.66 6 1 C4.35 1 2.7 1 1 1 C1.14095064 2.6254308 1.28792087 4.25034051 1.4375 5.875 C1.51871094 6.77992188 1.59992188 7.68484375 1.68359375 8.6171875 C1.86989285 11.01110861 1.86989285 11.01110861 3 13 C1.35 13 -0.3 13 -2 13 C-2.625 11.125 -2.625 11.125 -3 9 C-2.34 8.34 -1.68 7.68 -1 7 C-0.59952556 4.67724823 -0.2602896 2.34260643 0 0 Z " fill="#2B6D99" transform="translate(173,316)"/>
<path d="M0 0 C0.99 0 1.98 0 3 0 C3.33 0.66 3.66 1.32 4 2 C10.93 2.33 17.86 2.66 25 3 C25 3.33 25 3.66 25 4 C16.75 4 8.5 4 0 4 C-0.33 3.34 -0.66 2.68 -1 2 C-0.67 1.34 -0.34 0.68 0 0 Z " fill="#0D5380" transform="translate(182,275)"/>
<path d="M0 0 C2.86724686 0.57344937 3.8614515 0.8614515 6 3 C3.53846154 6.81538462 3.53846154 6.81538462 0.8125 7.75 C0.214375 7.8325 -0.38375 7.915 -1 8 C-1.93065133 5.39417629 -2.14917407 4.35801776 -1.0625 1.75 C-0.711875 1.1725 -0.36125 0.595 0 0 Z " fill="#03508C" transform="translate(275,135)"/>
<path d="M0 0 C0.33 1.65 0.66 3.3 1 5 C-0.98 4.34 -2.96 3.68 -5 3 C-5.66 4.65 -6.32 6.3 -7 8 C-7.66 8 -8.32 8 -9 8 C-9 8.66 -9 9.32 -9 10 C-9.66 10 -10.32 10 -11 10 C-10.1875 7.5625 -10.1875 7.5625 -9 5 C-8.01 4.67 -7.02 4.34 -6 4 C-6 3.34 -6 2.68 -6 2 C-3 0 -3 0 0 0 Z " fill="#55829C" transform="translate(280,132)"/>
<path d="M0 0 C0.66 0.33 1.32 0.66 2 1 C0.70161466 4.89515602 -1.73347496 6.71812126 -5 9 C-7.875 10.3125 -7.875 10.3125 -10 11 C-8.55218207 7.55571735 -6.72305391 5.63869038 -3.875 3.25 C-3.15054688 2.63640625 -2.42609375 2.0228125 -1.6796875 1.390625 C-0.84824219 0.70226562 -0.84824219 0.70226562 0 0 Z " fill="#4C83A6" transform="translate(237,121)"/>
<path d="M0 0 C0.99 0 1.98 0 3 0 C3.93423645 3.01031744 4.04449911 3.86650268 3 7 C3.39397335 9.63804589 3.39397335 9.63804589 4 12 C1.25656051 9.69905075 0.10176728 8.3914126 -0.8125 4.875 C-1 2 -1 2 0 0 Z " fill="#206488" transform="translate(239,120)"/>
<path d="M0 0 C1.66611905 -0.042721 3.33382885 -0.04063832 5 0 C6 1 6 1 6.09765625 3.72265625 C6.08605469 4.82480469 6.07445312 5.92695313 6.0625 7.0625 C6.05347656 8.16722656 6.04445312 9.27195312 6.03515625 10.41015625 C6.02355469 11.26480469 6.01195312 12.11945313 6 13 C5.34 13 4.68 13 4 13 C3.67 9.7 3.34 6.4 3 3 C2.01 2.67 1.02 2.34 0 2 C0 1.34 0 0.68 0 0 Z " fill="#F59E1B" transform="translate(229,341)"/>
<path d="M0 0 C2.8125 -0.3125 2.8125 -0.3125 6 0 C7.875 2.5 7.875 2.5 9 5 C8.34 5.66 7.68 6.32 7 7 C3.875 6.625 3.875 6.625 1 6 C0.67 4.02 0.34 2.04 0 0 Z " fill="#236696" transform="translate(175,321)"/>
<path d="M0 0 C0.66 0 1.32 0 2 0 C2.64995297 1.41478135 3.29478722 2.83191487 3.9375 4.25 C4.47697266 5.43335938 4.47697266 5.43335938 5.02734375 6.640625 C6 9 6 9 6.50390625 11.171875 C6.90022037 13.23171222 6.90022037 13.23171222 9 15 C7.68 15 6.36 15 5 15 C5 13.68 5 12.36 5 11 C4.34 11 3.68 11 3 11 C2.49384702 9.73160474 1.99530901 8.46016898 1.5 7.1875 C1.2215625 6.47980469 0.943125 5.77210938 0.65625 5.04296875 C0 3 0 3 0 0 Z " fill="#A58A4E" transform="translate(201,185)"/>
<path d="M0 0 C2.97 0.99 5.94 1.98 9 3 C9 3.33 9 3.66 9 4 C6.69 4.33 4.38 4.66 2 5 C1.34 7.31 0.68 9.62 0 12 C-0.66 12 -1.32 12 -2 12 C-1.34 8.04 -0.68 4.08 0 0 Z " fill="#E3B257" transform="translate(262,177)"/>
<path d="M0 0 C1.32 0 2.64 0 4 0 C4.66 1.32 5.32 2.64 6 4 C6.66 4 7.32 4 8 4 C7.67 5.32 7.34 6.64 7 8 C5.02 7.34 3.04 6.68 1 6 C0.67 4.02 0.34 2.04 0 0 Z " fill="#0A4D7C" transform="translate(265,167)"/>
<path d="M0 0 C0.33 0 0.66 0 1 0 C1.07347656 0.92232422 1.07347656 0.92232422 1.1484375 1.86328125 C1.22320312 2.67152344 1.29796875 3.47976563 1.375 4.3125 C1.44460937 5.11300781 1.51421875 5.91351563 1.5859375 6.73828125 C1.89564426 9.27224441 1.89564426 9.27224441 4 12 C2.6078125 11.505 2.6078125 11.505 1.1875 11 C-1.92029291 9.85032996 -1.92029291 9.85032996 -5 10 C-5.66 10.66 -6.32 11.32 -7 12 C-6.42655063 9.13275314 -6.1385485 8.1385485 -4 6 C-3.01 6 -2.02 6 -1 6 C-0.67 4.02 -0.34 2.04 0 0 Z " fill="#25628A" transform="translate(214,309)"/>
<path d="M0 0 C0.33 0 0.66 0 1 0 C1 1.65 1 3.3 1 5 C1.99 5 2.98 5 4 5 C4 6.32 4 7.64 4 9 C4.66 9.33 5.32 9.66 6 10 C5.01 10.33 4.02 10.66 3 11 C2.34 11.99 1.68 12.98 1 14 C-0.04976964 10.85069107 -0.10131595 8.61185544 -0.0625 5.3125 C-0.05347656 4.31863281 -0.04445312 3.32476562 -0.03515625 2.30078125 C-0.02355469 1.54152344 -0.01195312 0.78226563 0 0 Z " fill="#EFAF4A" transform="translate(193,155)"/>
<path d="M0 0 C1.2065625 0.0309375 1.2065625 0.0309375 2.4375 0.0625 C2.4375 3.0325 2.4375 6.0025 2.4375 9.0625 C2.1075 8.4025 1.7775 7.7425 1.4375 7.0625 C0.4475 7.0625 -0.5425 7.0625 -1.5625 7.0625 C-1.5625 6.0725 -1.5625 5.0825 -1.5625 4.0625 C-2.5525 4.0625 -3.5425 4.0625 -4.5625 4.0625 C-3.23463115 0.07889344 -3.23463115 0.07889344 0 0 Z M-1.5625 1.0625 C-1.5625 1.7225 -1.5625 2.3825 -1.5625 3.0625 C-0.5725 3.0625 0.4175 3.0625 1.4375 3.0625 C1.4375 2.4025 1.4375 1.7425 1.4375 1.0625 C0.4475 1.0625 -0.5425 1.0625 -1.5625 1.0625 Z " fill="#F2A839" transform="translate(213.5625,342.9375)"/>
<path d="M0 0 C2.31 0.33 4.62 0.66 7 1 C7 1.99 7 2.98 7 4 C7.99 4 8.98 4 10 4 C10 4.99 10 5.98 10 7 C8.35 7.33 6.7 7.66 5 8 C5.33 6.02 5.66 4.04 6 2 C5.01 2 4.02 2 3 2 C2.67 2.66 2.34 3.32 2 4 C1.34 2.68 0.68 1.36 0 0 Z " fill="#F2AD49" transform="translate(165,343)"/>
<path d="M0 0 C0.66 0.33 1.32 0.66 2 1 C1.01 2.485 1.01 2.485 0 4 C-3.15234375 4.6171875 -3.15234375 4.6171875 -6.9375 4.875 C-8.18402344 4.97554687 -9.43054688 5.07609375 -10.71484375 5.1796875 C-14 5 -14 5 -17 2 C-11.39 2 -5.78 2 0 2 C0 1.34 0 0.68 0 0 Z " fill="#668477" transform="translate(248,172)"/>
<path d="M0 0 C0.66 0 1.32 0 2 0 C2.33 1.65 2.66 3.3 3 5 C4.65 5.33 6.3 5.66 8 6 C7.67 6.99 7.34 7.98 7 9 C4.69 8.67 2.38 8.34 0 8 C0 5.36 0 2.72 0 0 Z " fill="#EC9D25" transform="translate(292,347)"/>
<path d="M0 0 C2.97 0 5.94 0 9 0 C9.33 1.98 9.66 3.96 10 6 C9.67 5.34 9.34 4.68 9 4 C8.236875 4 7.47375 4 6.6875 4 C4.79166667 4 2.89583333 4 1 4 C0.34 3.34 -0.32 2.68 -1 2 C-0.67 1.34 -0.34 0.68 0 0 Z " fill="#226593" transform="translate(218,321)"/>
<path d="M0 0 C5.61 0 11.22 0 17 0 C17 0.33 17 0.66 17 1 C8.585 2.485 8.585 2.485 0 4 C0 2.68 0 1.36 0 0 Z " fill="#044D6A" transform="translate(164,291)"/>
<path d="M0 0 C1.65322266 0.01740234 1.65322266 0.01740234 3.33984375 0.03515625 C4.99693359 0.04869141 4.99693359 0.04869141 6.6875 0.0625 C7.54214844 0.07410156 8.39679688 0.08570313 9.27734375 0.09765625 C6.05865202 3.80372087 2.96939226 4.09771148 -1.72265625 5.09765625 C-1.72265625 4.43765625 -1.72265625 3.77765625 -1.72265625 3.09765625 C-2.38265625 2.43765625 -3.04265625 1.77765625 -3.72265625 1.09765625 C-2.72265625 0.09765625 -2.72265625 0.09765625 0 0 Z " fill="#2C6B7B" transform="translate(281.72265625,198.90234375)"/>
<path d="M0 0 C1.17487036 0.75827092 2.33972592 1.53207755 3.5 2.3125 C4.47453125 2.95638672 4.47453125 2.95638672 5.46875 3.61328125 C5.9740625 4.07089844 6.479375 4.52851563 7 5 C7 5.99 7 6.98 7 8 C7.66 8 8.32 8 9 8 C9 8.66 9 9.32 9 10 C7.68 10.33 6.36 10.66 5 11 C5 9.35 5 7.7 5 6 C3.68 6 2.36 6 1 6 C0.67 4.02 0.34 2.04 0 0 Z " fill="#F1B966" transform="translate(202,150)"/>
<path d="M0 0 C0.33 0 0.66 0 1 0 C1.2295711 3.36704285 1.33943529 5.41370268 -0.375 8.375 C-0.91125 8.91125 -1.4475 9.4475 -2 10 C-2.66 10 -3.32 10 -4 10 C-4 9.01 -4 8.02 -4 7 C-5.65 7 -7.3 7 -9 7 C-7.68 6.01 -6.36 5.02 -5 4 C-4.67 4.66 -4.34 5.32 -4 6 C-3.01 6 -2.02 6 -1 6 C-0.67 4.02 -0.34 2.04 0 0 Z " fill="#F1B869" transform="translate(282,345)"/>
<path d="M0 0 C0.66 0 1.32 0 2 0 C2.33 1.98 2.66 3.96 3 6 C2.34 6 1.68 6 1 6 C1 10.62 1 15.24 1 20 C0.67 20 0.34 20 0 20 C0 13.4 0 6.8 0 0 Z " fill="#13B1C0" transform="translate(176,234)"/>
<path d="M0 0 C1.43836751 0.11458693 2.87570966 0.24209116 4.3125 0.375 C5.51326172 0.47941406 5.51326172 0.47941406 6.73828125 0.5859375 C9 1 9 1 12 3 C9.27157939 4.36421031 7.39046682 3.87807211 4.375 3.5625 C3.37210938 3.46066406 2.36921875 3.35882813 1.3359375 3.25390625 C0.56507813 3.17011719 -0.20578125 3.08632812 -1 3 C-0.67 2.01 -0.34 1.02 0 0 Z " fill="#0E4164" transform="translate(212,202)"/>
<path d="M0 0 C0.33 0 0.66 0 1 0 C1 1.98 1 3.96 1 6 C-0.98 6.33 -2.96 6.66 -5 7 C-5 5.02 -5 3.04 -5 1 C-2.525 1.495 -2.525 1.495 0 2 C0 1.34 0 0.68 0 0 Z " fill="#124F71" transform="translate(232,193)"/>
<path d="M0 0 C0.66 0.33 1.32 0.66 2 1 C1.67 1.66 1.34 2.32 1 3 C0.34 3 -0.32 3 -1 3 C-0.67 5.64 -0.34 8.28 0 11 C-0.99 10.67 -1.98 10.34 -3 10 C-3.75 7.25 -3.75 7.25 -4 4 C-2.0625 1.625 -2.0625 1.625 0 0 Z " fill="#32678A" transform="translate(233,163)"/>
<path d="M0 0 C0.33 0.66 0.66 1.32 1 2 C1.66 2 2.32 2 3 2 C4.625 4.5 4.625 4.5 6 7 C5.01 7.495 5.01 7.495 4 8 C4 7.34 4 6.68 4 6 C2.35 6.33 0.7 6.66 -1 7 C-1 6.34 -1 5.68 -1 5 C-1.66 5 -2.32 5 -3 5 C-1.125 1.125 -1.125 1.125 0 0 Z " fill="#256793" transform="translate(244,134)"/>
<path d="M0 0 C0.66 0.33 1.32 0.66 2 1 C1.67 1.99 1.34 2.98 1 4 C0.656509 9.33295432 0.656509 9.33295432 3 14 C-0.875 12.125 -0.875 12.125 -2 11 C-2.36090226 3.54135338 -2.36090226 3.54135338 0 0 Z " fill="#ECBA6D" transform="translate(324,341)"/>
<path d="M0 0 C0.556875 0.28875 1.11375 0.5775 1.6875 0.875 C4.08494645 2.0413253 6.51596939 3.0339881 9 4 C5.77484237 5.73662334 2.48670834 6.8905928 -1 8 C-0.34 6.68 0.32 5.36 1 4 C0.34 3.34 -0.32 2.68 -1 2 C-0.67 1.34 -0.34 0.68 0 0 Z " fill="#41789D" transform="translate(322,324)"/>
<path d="M0 0 C4.95 0 9.9 0 15 0 C10.54029623 2.22985189 7.9072337 2.61053701 3 3 C2.01 2.67 1.02 2.34 0 2 C0 1.34 0 0.68 0 0 Z " fill="#044879" transform="translate(306,291)"/>
<path d="M0 0 C2.97 0 5.94 0 9 0 C9 2.97 9 5.94 9 9 C8.67 9 8.34 9 8 9 C7.34 6.69 6.68 4.38 6 2 C4.68 2 3.36 2 2 2 C1.67 4.31 1.34 6.62 1 9 C0.67 9 0.34 9 0 9 C0 6.03 0 3.06 0 0 Z " fill="#26546A" transform="translate(249,189)"/>
<path d="M0 0 C0.66 0.33 1.32 0.66 2 1 C2.94934202 3.92713788 3.23176473 5.42831368 2.0625 8.3125 C1.5365625 9.1478125 1.5365625 9.1478125 1 10 C0.34 10 -0.32 10 -1 10 C-1 9.34 -1 8.68 -1 8 C-2.32 7.67 -3.64 7.34 -5 7 C-3.68 7 -2.36 7 -1 7 C-0.67 4.69 -0.34 2.38 0 0 Z " fill="#4E7688" transform="translate(315,166)"/>
<path d="M0 0 C0.66 0 1.32 0 2 0 C2 3.63 2 7.26 2 11 C1.01 10.67 0.02 10.34 -1 10 C-1.02689216 8.52093108 -1.04634621 7.04172517 -1.0625 5.5625 C-1.07410156 4.73878906 -1.08570313 3.91507813 -1.09765625 3.06640625 C-1 1 -1 1 0 0 Z " fill="#537E9D" transform="translate(280,138)"/>
<path d="M0 0 C0.66 0.33 1.32 0.66 2 1 C2 2.65 2 4.3 2 6 C1.34 6 0.68 6 0 6 C0 7.32 0 8.64 0 10 C-1.65 10 -3.3 10 -5 10 C-4.54625 9.46375 -4.0925 8.9275 -3.625 8.375 C-1.78311688 5.68301698 -0.92028067 3.11479612 0 0 Z " fill="#EF9D24" transform="translate(196,344)"/>
<path d="M0 0 C0.66 0.33 1.32 0.66 2 1 C1.34 1.66 0.68 2.32 0 3 C2.25740623 5.33524782 4.2805761 7.18705073 7 9 C4.23723823 8.47731534 1.6739124 7.89130413 -1 7 C-2.1875 4.4375 -2.1875 4.4375 -3 2 C-2.01 1.34 -1.02 0.68 0 0 Z " fill="#0C4D7A" transform="translate(191,308)"/>
<path d="M0 0 C2.97 0 5.94 0 9 0 C9 0.99 9 1.98 9 3 C5.7 3 2.4 3 -1 3 C-0.67 2.01 -0.34 1.02 0 0 Z " fill="#0E4061" transform="translate(270,291)"/>
<path d="M0 0 C1.21816406 0.03480469 1.21816406 0.03480469 2.4609375 0.0703125 C3.68683594 0.09738281 3.68683594 0.09738281 4.9375 0.125 C5.87722656 0.15980469 5.87722656 0.15980469 6.8359375 0.1953125 C6.5059375 1.1853125 6.1759375 2.1753125 5.8359375 3.1953125 C-0.21875 4.171875 -0.21875 4.171875 -2.1640625 4.1953125 C-2.8240625 3.5353125 -3.4840625 2.8753125 -4.1640625 2.1953125 C-2.1640625 0.1953125 -2.1640625 0.1953125 0 0 Z " fill="#094D67" transform="translate(252.1640625,290.8046875)"/>
<path d="M0 0 C1.32 0.33 2.64 0.66 4 1 C4.66 4.96 5.32 8.92 6 13 C2.10014426 8.84015388 1.10830253 5.44915409 0 0 Z " fill="#D9A04A" transform="translate(195,170)"/>
<path d="M0 0 C0.33 0.99 0.66 1.98 1 3 C1.66 3 2.32 3 3 3 C3 2.01 3 1.02 3 0 C3.99 0.33 4.98 0.66 6 1 C5.34 2.65 4.68 4.3 4 6 C2.68 6 1.36 6 0 6 C-0.38218767 4.34385343 -0.71395102 2.67542976 -1 1 C-0.67 0.67 -0.34 0.34 0 0 Z " fill="#EEC57D" transform="translate(249,350)"/>
<path d="M0 0 C1.2065625 0.0309375 1.2065625 0.0309375 2.4375 0.0625 C2.08870368 3.31793229 1.41616739 4.08123107 -1.125 6.3125 C-1.929375 6.89 -2.73375 7.4675 -3.5625 8.0625 C-3.8925 7.4025 -4.2225 6.7425 -4.5625 6.0625 C-3.9025 6.0625 -3.2425 6.0625 -2.5625 6.0625 C-2.8409375 4.8559375 -2.8409375 4.8559375 -3.125 3.625 C-3.269375 2.779375 -3.41375 1.93375 -3.5625 1.0625 C-2.5625 0.0625 -2.5625 0.0625 0 0 Z " fill="#2D6D8F" transform="translate(334.5625,319.9375)"/>
<path d="M0 0 C1.31225809 3.93677426 0.3393954 5.7794262 -0.9375 9.6875 C-1.50791016 11.45673828 -1.50791016 11.45673828 -2.08984375 13.26171875 C-2.39019531 14.16535156 -2.69054687 15.06898438 -3 16 C-3.33 16 -3.66 16 -4 16 C-4.32580539 10.46130839 -4.49119957 6.60838344 -1 2 C-0.67 1.34 -0.34 0.68 0 0 Z " fill="#4B7F9E" transform="translate(312,254)"/>
<path d="M0 0 C0.33 0 0.66 0 1 0 C1 1.98 1 3.96 1 6 C-1.97 6 -4.94 6 -8 6 C-8.33 4.68 -8.66 3.36 -9 2 C-6.03 2.495 -6.03 2.495 -3 3 C-2.67 2.34 -2.34 1.68 -2 1 C-2 1.99 -2 2.98 -2 4 C-1.34 4.33 -0.68 4.66 0 5 C0 3.35 0 1.7 0 0 Z " fill="#F19E23" transform="translate(246,192)"/>
<path d="M0 0 C4.21878192 -0.19622241 7.17010894 0.19769832 11 2 C11 2.66 11 3.32 11 4 C10.0925 3.814375 9.185 3.62875 8.25 3.4375 C5.31685676 3.04265379 3.7355343 3.05308428 1 4 C0.67 2.68 0.34 1.36 0 0 Z " fill="#E69E26" transform="translate(292,168)"/>
<path d="M0 0 C0.33 0.66 0.66 1.32 1 2 C1.66 2 2.32 2 3 2 C3 3.65 3 5.3 3 7 C1.35 7.33 -0.3 7.66 -2 8 C-2.33 6.35 -2.66 4.7 -3 3 C-1 4 -1 4 0 5 C0 3.35 0 1.7 0 0 Z " fill="#295977" transform="translate(203,194)"/>
<path d="M0 0 C2.35170044 2.13790949 3.88791835 4.00593401 5 7 C5.125 10.25 5.125 10.25 5 13 C4.34 13 3.68 13 3 13 C1.90154282 8.67940177 0.82187261 4.38332057 0 0 Z " fill="#83805E" transform="translate(222,187)"/>
<path d="M0 0 C0.66 0.33 1.32 0.66 2 1 C1.34 5.29 0.68 9.58 0 14 C-0.99 13.01 -1.98 12.02 -3 11 C-2.01 7.37 -1.02 3.74 0 0 Z " fill="#6993AB" transform="translate(275,155)"/>
<path d="M0 0 C0.66 0.33 1.32 0.66 2 1 C1.01 1.33 0.02 1.66 -1 2 C-0.67 3.65 -0.34 5.3 0 7 C-0.33 6.34 -0.66 5.68 -1 5 C-1.61875 5.165 -2.2375 5.33 -2.875 5.5 C-5.51756073 6.12177899 -6.5498653 6.22506735 -9 5 C-2.53398058 1.04854369 -2.53398058 1.04854369 0 0 Z " fill="#4E8AAB" transform="translate(301,155)"/>
<path d="M0 0 C0.66 0 1.32 0 2 0 C1.6875 3.375 1.6875 3.375 1 7 C0.01 7.66 -0.98 8.32 -2 9 C-3.98 8.01 -5.96 7.02 -8 6 C-4.94736336 5.01879536 -3.05263664 5.01879536 0 6 C0 4.02 0 2.04 0 0 Z " fill="#CDA65E" transform="translate(318,144)"/>
<path d="M0 0 C3.35595828 0.59927826 5.37801226 1.84622436 8 4 C6.35 4.66 4.7 5.32 3 6 C1.5 4.6875 1.5 4.6875 0 3 C0 2.01 0 1.02 0 0 Z " fill="#02528A" transform="translate(326,297)"/>
<path d="M0 0 C1.32 0 2.64 0 4 0 C3.67 1.32 3.34 2.64 3 4 C1.02 4.33 -0.96 4.66 -3 5 C-1.125 1.125 -1.125 1.125 0 0 Z " fill="#F8A529" transform="translate(200,159)"/>
<path d="M0 0 C0.33 0 0.66 0 1 0 C1.144375 1.093125 1.28875 2.18625 1.4375 3.3125 C1.88288104 6.93122987 1.88288104 6.93122987 3 10 C2.67 10.66 2.34 11.32 2 12 C1.34 12 0.68 12 0 12 C0 12.66 0 13.32 0 14 C-0.66 14 -1.32 14 -2 14 C-2 13.01 -2 12.02 -2 11 C-1.34 11 -0.68 11 0 11 C0 7.37 0 3.74 0 0 Z " fill="#215C83" transform="translate(278,141)"/>
<path d="M0 0 C2.31 0 4.62 0 7 0 C7.33 1.32 7.66 2.64 8 4 C6.68 4.33 5.36 4.66 4 5 C4.33 4.01 4.66 3.02 5 2 C3.35 2 1.7 2 0 2 C0 1.34 0 0.68 0 0 Z " fill="#EDB76E" transform="translate(295,351)"/>
<path d="M0 0 C1.32 0.33 2.64 0.66 4 1 C4.20140476 4.62528568 3.85776765 6.86501708 2 10 C1.34 10 0.68 10 0 10 C0 6.7 0 3.4 0 0 Z " fill="#F2A021" transform="translate(333,343)"/>
<path d="M0 0 C0.66 0 1.32 0 2 0 C1.84660156 0.51046875 1.69320313 1.0209375 1.53515625 1.546875 C0.83094597 4.7749338 0.65111796 7.95418001 0.4375 11.25 C0.35371094 12.51328125 0.26992188 13.7765625 0.18359375 15.078125 C0.12300781 16.04234375 0.06242187 17.0065625 0 18 C-0.33 18 -0.66 18 -1 18 C-1.02684312 15.18743719 -1.04676188 12.37512759 -1.0625 9.5625 C-1.07087891 8.76005859 -1.07925781 7.95761719 -1.08789062 7.13085938 C-1.0965143 5.08704779 -1.0522815 3.04316098 -1 1 C-0.67 0.67 -0.34 0.34 0 0 Z " fill="#1E5279" transform="translate(303,292)"/>
<path d="M0 0 C2.31 0 4.62 0 7 0 C5.25 4.875 5.25 4.875 3 6 C0 1.125 0 1.125 0 0 Z " fill="#165F8F" transform="translate(248,294)"/>
<path d="M0 0 C0.66 1.32 1.32 2.64 2 4 C3.65 4 5.3 4 7 4 C7 4.99 7 5.98 7 7 C4.69 7 2.38 7 0 7 C0 4.69 0 2.38 0 0 Z " fill="#125079" transform="translate(250,191)"/>
<path d="M0 0 C2.64 0 5.28 0 8 0 C8.33 0.66 8.66 1.32 9 2 C7.3603125 2.2165625 7.3603125 2.2165625 5.6875 2.4375 C2.06877013 2.88288104 2.06877013 2.88288104 -1 4 C-0.67 2.68 -0.34 1.36 0 0 Z " fill="#F19E22" transform="translate(187,341)"/>
<path d="M0 0 C0.66 0 1.32 0 2 0 C1.88541307 1.43836751 1.75790884 2.87570966 1.625 4.3125 C1.55539063 5.11300781 1.48578125 5.91351563 1.4140625 6.73828125 C1 9 1 9 -1 12 C-1.33 9.03 -1.66 6.06 -2 3 C-1.34 3 -0.68 3 0 3 C0 2.01 0 1.02 0 0 Z " fill="#4E80A1" transform="translate(185,248)"/>
<path d="M0 0 C1.98 0.66 3.96 1.32 6 2 C6 2.66 6 3.32 6 4 C4.35 4 2.7 4 1 4 C1 4.66 1 5.32 1 6 C0.01 6.33 -0.98 6.66 -2 7 C-1.34 4.69 -0.68 2.38 0 0 Z " fill="#B9A169" transform="translate(291,164)"/>
<path d="M0 0 C0.66 0 1.32 0 2 0 C2 0.66 2 1.32 2 2 C3.32 2 4.64 2 6 2 C6 2.99 6 3.98 6 5 C3.625 5.1875 3.625 5.1875 1 5 C0.34 4.01 -0.32 3.02 -1 2 C-0.67 1.34 -0.34 0.68 0 0 Z " fill="#F0A02D" transform="translate(326,350)"/>
<path d="M0 0 C0.66 0 1.32 0 2 0 C3.18414294 3.55242882 2.69535532 4.69830562 1.5625 8.1875 C1.27503906 9.08855469 0.98757813 9.98960937 0.69140625 10.91796875 C0.46324219 11.60503906 0.23507812 12.29210937 0 13 C-0.33 13 -0.66 13 -1 13 C-1.07654536 8.48382401 -1.10228696 4.40914783 0 0 Z " fill="#3B7390" transform="translate(323,212)"/>
<path d="M0 0 C0.33 0 0.66 0 1 0 C1 1.98 1 3.96 1 6 C2.65 6 4.3 6 6 6 C5.67 6.66 5.34 7.32 5 8 C2.69 7.67 0.38 7.34 -2 7 C-1.34 4.69 -0.68 2.38 0 0 Z " fill="#90A79E" transform="translate(270,191)"/>
<path d="M0 0 C0 1.65 0 3.3 0 5 C-1.65 4.67 -3.3 4.34 -5 4 C-5 3.01 -5 2.02 -5 1 C-3 0 -3 0 0 0 Z " fill="#025286" transform="translate(232,190)"/>
<path d="M0 0 C4.04256383 1.22217046 7.49288959 2.62754296 11 5 C11 5.33 11 5.66 11 6 C9.35 6 7.7 6 6 6 C6 5.34 6 4.68 6 4 C4.02 3.34 2.04 2.68 0 2 C0 1.34 0 0.68 0 0 Z " fill="#295065" transform="translate(291,162)"/>
<path d="M0 0 C0.66 0 1.32 0 2 0 C2.33 2.97 2.66 5.94 3 9 C2.01 8.67 1.02 8.34 0 8 C-1.125 2.25 -1.125 2.25 0 0 Z " fill="#F4A024" transform="translate(269,344)"/>
<path d="M0 0 C1.99954746 -0.04254356 4.00041636 -0.04080783 6 0 C7 1 7 1 7.0625 3.5625 C7.041875 4.366875 7.02125 5.17125 7 6 C5.68 5.67 4.36 5.34 3 5 C3.33 4.01 3.66 3.02 4 2 C2.68 2 1.36 2 0 2 C0 1.34 0 0.68 0 0 Z " fill="#F4C26D" transform="translate(253,344)"/>
<path d="M0 0 C0.4125 0.45375 0.825 0.9075 1.25 1.375 C3.06408095 3.05950374 4.75285627 3.99265971 7 5 C5.375 5.75 5.375 5.75 3 6 C-0.25 4.0625 -0.25 4.0625 -3 2 C-2.01 1.34 -1.02 0.68 0 0 Z " fill="#5A82A1" transform="translate(210,325)"/>
<path d="M0 0 C0 0.66 0 1.32 0 2 C0.66 2 1.32 2 2 2 C1.67 3.32 1.34 4.64 1 6 C0.34 6 -0.32 6 -1 6 C-1 5.01 -1 4.02 -1 3 C-3.97 2.505 -3.97 2.505 -7 2 C-7 1.67 -7 1.34 -7 1 C-2.25 0 -2.25 0 0 0 Z " fill="#25618A" transform="translate(186,299)"/>
<path d="M0 0 C2.62187494 1.04874998 3.79371361 1.64931313 5.25 4.125 C5.4975 4.74375 5.745 5.3625 6 6 C3.97954558 5.39816251 1.97888961 4.72693904 0 4 C-0.33 3.34 -0.66 2.68 -1 2 C-0.67 1.34 -0.34 0.68 0 0 Z " fill="#104B74" transform="translate(330,295)"/>
<path d="M0 0 C0.66 0.66 1.32 1.32 2 2 C1.75 5.5625 1.75 5.5625 1 9 C0.01 9.495 0.01 9.495 -1 10 C-1.125 2.25 -1.125 2.25 0 0 Z " fill="#205581" transform="translate(229,291)"/>
<path d="M0 0 C3.96 0.33 7.92 0.66 12 1 C12 1.33 12 1.66 12 2 C7.9472484 2.98248524 4.16138263 3.08159574 0 3 C0 2.01 0 1.02 0 0 Z " fill="#BECBCC" transform="translate(294,197)"/>
<path d="M0 0 C2 1 2 1 3 2 C3.66 2.33 4.32 2.66 5 3 C5 4.32 5 5.64 5 7 C3.68 7 2.36 7 1 7 C0.67 4.69 0.34 2.38 0 0 Z " fill="#12506C" transform="translate(193,144)"/>
<path d="M0 0 C2 2 2 2 2 6 C0.35 6 -1.3 6 -3 6 C-3.33 4.68 -3.66 3.36 -4 2 C-2.02 2.99 -2.02 2.99 0 4 C0 2.68 0 1.36 0 0 Z " fill="#EBB668" transform="translate(219,350)"/>
<path d="M0 0 C2.14699969 3.44175522 2.09856795 5.7720292 1.625 9.75 C1.51414063 10.73484375 1.40328125 11.7196875 1.2890625 12.734375 C1.19367188 13.48203125 1.09828125 14.2296875 1 15 C0.67 15 0.34 15 0 15 C-0.19448477 12.87562788 -0.38038289 10.75046809 -0.5625 8.625 C-0.66691406 7.44164062 -0.77132812 6.25828125 -0.87890625 5.0390625 C-1 2 -1 2 0 0 Z " fill="#5E87A5" transform="translate(214,292)"/>
<path d="M0 0 C2.64 0 5.28 0 8 0 C8 0.99 8 1.98 8 3 C5.36 2.67 2.72 2.34 0 2 C0 1.34 0 0.68 0 0 Z " fill="#094970" transform="translate(206,291)"/>
<path d="M0 0 C0.33 0 0.66 0 1 0 C1.02712066 1.43739513 1.04645067 2.87493863 1.0625 4.3125 C1.07410156 5.11300781 1.08570313 5.91351563 1.09765625 6.73828125 C1 9 1 9 0 12 C-0.66 12 -1.32 12 -2 12 C-1.44687265 7.97007218 -0.8441938 3.97977076 0 0 Z " fill="#3C6E98" transform="translate(192,236)"/>
<path d="M0 0 C1.32 0 2.64 0 4 0 C3.25 5.75 3.25 5.75 1 8 C0.67 5.36 0.34 2.72 0 0 Z " fill="#F49E1C" transform="translate(215,342)"/>
<path d="M0 0 C2.0625 0.4375 2.0625 0.4375 4 1 C3.67 2.98 3.34 4.96 3 7 C2.67 6.34 2.34 5.68 2 5 C1.34 5 0.68 5 0 5 C-0.5625 3.0625 -0.5625 3.0625 -1 1 C-0.67 0.67 -0.34 0.34 0 0 Z " fill="#094E7D" transform="translate(188,225)"/>
<path d="M0 0 C-0.66 3.3 -1.32 6.6 -2 10 C-2.33 10 -2.66 10 -3 10 C-2.979375 9.071875 -2.95875 8.14375 -2.9375 7.1875 C-2.84230396 3.97713989 -2.84230396 3.97713989 -4 1 C-2 0 -2 0 0 0 Z " fill="#E7BE73" transform="translate(273,181)"/>
<path d="M0 0 C2.1875 0.3125 2.1875 0.3125 4 1 C4 1.66 4 2.32 4 3 C2.02 3.99 2.02 3.99 0 5 C-0.99 4.34 -1.98 3.68 -3 3 C-1.75 1.4375 -1.75 1.4375 0 0 Z " fill="#326687" transform="translate(181,177)"/>
<path d="M0 0 C0.99 0.33 1.98 0.66 3 1 C3 1.66 3 2.32 3 3 C4.65 3 6.3 3 8 3 C8 3.66 8 4.32 8 5 C5.69 4.67 3.38 4.34 1 4 C0.67 2.68 0.34 1.36 0 0 Z " fill="#235067" transform="translate(264,174)"/>
<path d="M0 0 C0.66 0.33 1.32 0.66 2 1 C1.67 2.65 1.34 4.3 1 6 C0.01 6 -0.98 6 -2 6 C-2 4.35 -2 2.7 -2 1 C-1.34 0.67 -0.68 0.34 0 0 Z " fill="#EE9D1E" transform="translate(280,345)"/>
<path d="M0 0 C0.99 0.33 1.98 0.66 3 1 C3.6875 3.0625 3.6875 3.0625 4 5 C2.68 5.33 1.36 5.66 0 6 C-0.38218767 4.34385343 -0.71395102 2.67542976 -1 1 C-0.67 0.67 -0.34 0.34 0 0 Z " fill="#4298AF" transform="translate(178,271)"/>
<path d="M0 0 C1 3 1 3 0.0625 5.1875 C-0.4634375 6.0846875 -0.4634375 6.0846875 -1 7 C-1.66 7 -2.32 7 -3 7 C-3 5.02 -3 3.04 -3 1 C-2.01 0.67 -1.02 0.34 0 0 Z " fill="#095182" transform="translate(276,189)"/>
<path d="M0 0 C0.33 0 0.66 0 1 0 C1.36923077 7.38461538 1.36923077 7.38461538 -0.5 10.5 C-0.995 10.995 -1.49 11.49 -2 12 C-2.12156361 7.74527368 -1.92751122 3.85502243 0 0 Z " fill="#EFAA3F" transform="translate(307,182)"/>
<path d="M0 0 C1.32 0 2.64 0 4 0 C4 0.99 4 1.98 4 3 C3.01 3 2.02 3 1 3 C1 3.66 1 4.32 1 5 C0.34 5 -0.32 5 -1 5 C-0.67 3.35 -0.34 1.7 0 0 Z " fill="#EAAD61" transform="translate(291,339)"/>
<path d="M0 0 C0.66 0.33 1.32 0.66 2 1 C1.67 2.65 1.34 4.3 1 6 C-0.65 4.68 -2.3 3.36 -4 2 C-2.125 0.9375 -2.125 0.9375 0 0 Z " fill="#41769A" transform="translate(325,299)"/>
<path d="M0 0 C0.66 0 1.32 0 2 0 C1.34 2.97 0.68 5.94 0 9 C-0.66 8.67 -1.32 8.34 -2 8 C-1.47731534 5.23723823 -0.89130413 2.6739124 0 0 Z " fill="#5486A0" transform="translate(195,211)"/>
<path d="M0 0 C-0.33 1.32 -0.66 2.64 -1 4 C-2.65 4.33 -4.3 4.66 -6 5 C-6 4.01 -6 3.02 -6 2 C-2.25 0 -2.25 0 0 0 Z " fill="#3F6A8D" transform="translate(212,201)"/>
<path d="M0 0 C1.98 0 3.96 0 6 0 C5.67 1.32 5.34 2.64 5 4 C3.35 3.67 1.7 3.34 0 3 C0 2.01 0 1.02 0 0 Z " fill="#104B75" transform="translate(269,155)"/>
</svg>
